<svg width="356" height="23" viewBox="0 0 356 23" fill="none" xmlns="http://www.w3.org/2000/svg">
<g opacity="0.4">
<path d="M29.9392 10.1062L7.76437 10.1062L12.6361 4.80093C13.3081 4.06916 13.3081 2.97151 12.6361 2.23974C11.9642 1.50798 10.9562 1.50798 10.2842 2.23974L2.55665 10.6551C1.88468 11.3868 1.88468 12.4845 2.55665 13.2162L10.2842 21.6316C10.9562 22.3633 11.9642 22.3633 12.6361 21.6316C13.3081 20.8998 13.3081 19.8021 12.6361 19.0704L7.76437 13.7651L29.9392 13.7651C30.7792 13.7651 31.6191 13.0333 31.6191 11.9357C31.6191 10.838 30.7792 10.1062 29.9392 10.1062Z" fill="#458FF6"/>
</g>
<g clip-path="url(#clip0_1_1660)">
<path d="M326.061 12.9455L348.236 12.9455L343.364 18.2508C342.692 18.9826 342.692 20.0802 343.364 20.812C344.036 21.5438 345.044 21.5438 345.716 20.812L353.444 12.3967C354.116 11.6649 354.116 10.5673 353.444 9.83551L345.716 1.42019C345.044 0.688424 344.036 0.688424 343.364 1.42019C342.692 2.15196 342.692 3.24961 343.364 3.98137L348.236 9.28668L326.061 9.28668C325.221 9.28668 324.381 10.0184 324.381 11.1161C324.381 12.2138 325.221 12.9455 326.061 12.9455Z" fill="#458FF6"/>
</g>
<ellipse opacity="0.3" cx="163.023" cy="11.5261" rx="5.2682" ry="5.73705" fill="#5B9BF3"/>
<ellipse opacity="0.3" cx="192.525" cy="11.5261" rx="5.2682" ry="5.73705" fill="#5B9BF3"/>
<ellipse opacity="0.3" cx="222.027" cy="11.5261" rx="5.2682" ry="5.73705" fill="#5B9BF3"/>
<ellipse cx="133.521" cy="11.5261" rx="5.2682" ry="5.73705" fill="#5B9BF3"/>
<defs>
<clipPath id="clip0_1_1660">
<rect width="33.1144" height="22.9482" fill="white" transform="translate(355.237 23) rotate(-180)"/>
</clipPath>
</defs>
</svg>
