<svg width="136" height="111" viewBox="0 0 136 111" fill="none" xmlns="http://www.w3.org/2000/svg">
<g opacity="0.26">
<mask id="mask0_1_1273" style="mask-type:alpha" maskUnits="userSpaceOnUse" x="0" y="0" width="11" height="11">
<path d="M5.39436 10.224C8.37358 10.224 10.7887 7.975 10.7887 5.20082C10.7887 2.42664 8.37358 0.177734 5.39436 0.177734C2.41513 0.177734 0 2.42664 0 5.20082C0 7.975 2.41513 10.224 5.39436 10.224Z" fill="url(#paint0_linear_1_1273)"/>
</mask>
<g mask="url(#mask0_1_1273)">
<path d="M5.39436 10.224C8.37358 10.224 10.7887 7.975 10.7887 5.20082C10.7887 2.42664 8.37358 0.177734 5.39436 0.177734C2.41513 0.177734 0 2.42664 0 5.20082C0 7.975 2.41513 10.224 5.39436 10.224Z" fill="url(#paint1_linear_1_1273)"/>
</g>
<mask id="mask1_1_1273" style="mask-type:alpha" maskUnits="userSpaceOnUse" x="31" y="0" width="12" height="11">
<path d="M36.6367 10.224C39.6159 10.224 42.031 7.975 42.031 5.20082C42.031 2.42664 39.6159 0.177734 36.6367 0.177734C33.6575 0.177734 31.2423 2.42664 31.2423 5.20082C31.2423 7.975 33.6575 10.224 36.6367 10.224Z" fill="url(#paint2_linear_1_1273)"/>
</mask>
<g mask="url(#mask1_1_1273)">
<path d="M36.6367 10.224C39.6159 10.224 42.031 7.975 42.031 5.20082C42.031 2.42664 39.6159 0.177734 36.6367 0.177734C33.6575 0.177734 31.2423 2.42664 31.2423 5.20082C31.2423 7.975 33.6575 10.224 36.6367 10.224Z" fill="url(#paint3_linear_1_1273)"/>
</g>
<mask id="mask2_1_1273" style="mask-type:alpha" maskUnits="userSpaceOnUse" x="62" y="0" width="12" height="11">
<path d="M67.8791 10.224C70.8583 10.224 73.2735 7.975 73.2735 5.20082C73.2735 2.42664 70.8583 0.177734 67.8791 0.177734C64.8999 0.177734 62.4847 2.42664 62.4847 5.20082C62.4847 7.975 64.8999 10.224 67.8791 10.224Z" fill="url(#paint4_linear_1_1273)"/>
</mask>
<g mask="url(#mask2_1_1273)">
<path d="M67.8791 10.224C70.8583 10.224 73.2735 7.975 73.2735 5.20082C73.2735 2.42664 70.8583 0.177734 67.8791 0.177734C64.8999 0.177734 62.4847 2.42664 62.4847 5.20082C62.4847 7.975 64.8999 10.224 67.8791 10.224Z" fill="url(#paint5_linear_1_1273)"/>
</g>
<mask id="mask3_1_1273" style="mask-type:alpha" maskUnits="userSpaceOnUse" x="93" y="0" width="12" height="11">
<path d="M99.1216 10.224C102.101 10.224 104.516 7.975 104.516 5.20082C104.516 2.42664 102.101 0.177734 99.1216 0.177734C96.1423 0.177734 93.7272 2.42664 93.7272 5.20082C93.7272 7.975 96.1423 10.224 99.1216 10.224Z" fill="url(#paint6_linear_1_1273)"/>
</mask>
<g mask="url(#mask3_1_1273)">
<path d="M99.1216 10.224C102.101 10.224 104.516 7.975 104.516 5.20082C104.516 2.42664 102.101 0.177734 99.1216 0.177734C96.1423 0.177734 93.7272 2.42664 93.7272 5.20082C93.7272 7.975 96.1423 10.224 99.1216 10.224Z" fill="url(#paint7_linear_1_1273)"/>
</g>
<mask id="mask4_1_1273" style="mask-type:alpha" maskUnits="userSpaceOnUse" x="124" y="0" width="12" height="11">
<path d="M130.364 10.224C133.343 10.224 135.758 7.975 135.758 5.20082C135.758 2.42664 133.343 0.177734 130.364 0.177734C127.385 0.177734 124.969 2.42664 124.969 5.20082C124.969 7.975 127.385 10.224 130.364 10.224Z" fill="url(#paint8_linear_1_1273)"/>
</mask>
<g mask="url(#mask4_1_1273)">
<path d="M130.364 10.224C133.343 10.224 135.758 7.975 135.758 5.20082C135.758 2.42664 133.343 0.177734 130.364 0.177734C127.385 0.177734 124.969 2.42664 124.969 5.20082C124.969 7.975 127.385 10.224 130.364 10.224Z" fill="url(#paint9_linear_1_1273)"/>
</g>
<mask id="mask5_1_1273" style="mask-type:alpha" maskUnits="userSpaceOnUse" x="0" y="25" width="11" height="11">
<path d="M5.39436 35.4441C8.37358 35.4441 10.7887 33.1952 10.7887 30.421C10.7887 27.6468 8.37358 25.3979 5.39436 25.3979C2.41513 25.3979 0 27.6468 0 30.421C0 33.1952 2.41513 35.4441 5.39436 35.4441Z" fill="url(#paint10_linear_1_1273)"/>
</mask>
<g mask="url(#mask5_1_1273)">
<path d="M5.39436 35.4441C8.37358 35.4441 10.7887 33.1952 10.7887 30.421C10.7887 27.6468 8.37358 25.3979 5.39436 25.3979C2.41513 25.3979 0 27.6468 0 30.421C0 33.1952 2.41513 35.4441 5.39436 35.4441Z" fill="url(#paint11_linear_1_1273)"/>
</g>
<mask id="mask6_1_1273" style="mask-type:alpha" maskUnits="userSpaceOnUse" x="31" y="25" width="12" height="11">
<path d="M36.6367 35.4441C39.6159 35.4441 42.031 33.1952 42.031 30.421C42.031 27.6468 39.6159 25.3979 36.6367 25.3979C33.6575 25.3979 31.2423 27.6468 31.2423 30.421C31.2423 33.1952 33.6575 35.4441 36.6367 35.4441Z" fill="url(#paint12_linear_1_1273)"/>
</mask>
<g mask="url(#mask6_1_1273)">
<path d="M36.6367 35.4441C39.6159 35.4441 42.031 33.1952 42.031 30.421C42.031 27.6468 39.6159 25.3979 36.6367 25.3979C33.6575 25.3979 31.2423 27.6468 31.2423 30.421C31.2423 33.1952 33.6575 35.4441 36.6367 35.4441Z" fill="url(#paint13_linear_1_1273)"/>
</g>
<mask id="mask7_1_1273" style="mask-type:alpha" maskUnits="userSpaceOnUse" x="62" y="25" width="12" height="11">
<path d="M67.8791 35.4441C70.8583 35.4441 73.2735 33.1952 73.2735 30.421C73.2735 27.6468 70.8583 25.3979 67.8791 25.3979C64.8999 25.3979 62.4847 27.6468 62.4847 30.421C62.4847 33.1952 64.8999 35.4441 67.8791 35.4441Z" fill="url(#paint14_linear_1_1273)"/>
</mask>
<g mask="url(#mask7_1_1273)">
<path d="M67.8791 35.4441C70.8583 35.4441 73.2735 33.1952 73.2735 30.421C73.2735 27.6468 70.8583 25.3979 67.8791 25.3979C64.8999 25.3979 62.4847 27.6468 62.4847 30.421C62.4847 33.1952 64.8999 35.4441 67.8791 35.4441Z" fill="url(#paint15_linear_1_1273)"/>
</g>
<mask id="mask8_1_1273" style="mask-type:alpha" maskUnits="userSpaceOnUse" x="93" y="25" width="12" height="11">
<path d="M99.1216 35.4441C102.101 35.4441 104.516 33.1952 104.516 30.421C104.516 27.6468 102.101 25.3979 99.1216 25.3979C96.1423 25.3979 93.7272 27.6468 93.7272 30.421C93.7272 33.1952 96.1423 35.4441 99.1216 35.4441Z" fill="url(#paint16_linear_1_1273)"/>
</mask>
<g mask="url(#mask8_1_1273)">
<path d="M99.1216 35.4441C102.101 35.4441 104.516 33.1952 104.516 30.421C104.516 27.6468 102.101 25.3979 99.1216 25.3979C96.1423 25.3979 93.7272 27.6468 93.7272 30.421C93.7272 33.1952 96.1423 35.4441 99.1216 35.4441Z" fill="url(#paint17_linear_1_1273)"/>
</g>
<mask id="mask9_1_1273" style="mask-type:alpha" maskUnits="userSpaceOnUse" x="124" y="25" width="12" height="11">
<path d="M130.364 35.4441C133.343 35.4441 135.758 33.1952 135.758 30.421C135.758 27.6468 133.343 25.3979 130.364 25.3979C127.385 25.3979 124.969 27.6468 124.969 30.421C124.969 33.1952 127.385 35.4441 130.364 35.4441Z" fill="url(#paint18_linear_1_1273)"/>
</mask>
<g mask="url(#mask9_1_1273)">
<path d="M130.364 35.4441C133.343 35.4441 135.758 33.1952 135.758 30.421C135.758 27.6468 133.343 25.3979 130.364 25.3979C127.385 25.3979 124.969 27.6468 124.969 30.421C124.969 33.1952 127.385 35.4441 130.364 35.4441Z" fill="url(#paint19_linear_1_1273)"/>
</g>
<mask id="mask10_1_1273" style="mask-type:alpha" maskUnits="userSpaceOnUse" x="0" y="50" width="11" height="11">
<path d="M5.39436 60.6121C8.37358 60.6121 10.7887 58.3632 10.7887 55.589C10.7887 52.8148 8.37358 50.5659 5.39436 50.5659C2.41513 50.5659 0 52.8148 0 55.589C0 58.3632 2.41513 60.6121 5.39436 60.6121Z" fill="url(#paint20_linear_1_1273)"/>
</mask>
<g mask="url(#mask10_1_1273)">
<path d="M5.39436 60.6121C8.37358 60.6121 10.7887 58.3632 10.7887 55.589C10.7887 52.8148 8.37358 50.5659 5.39436 50.5659C2.41513 50.5659 0 52.8148 0 55.589C0 58.3632 2.41513 60.6121 5.39436 60.6121Z" fill="url(#paint21_linear_1_1273)"/>
</g>
<mask id="mask11_1_1273" style="mask-type:alpha" maskUnits="userSpaceOnUse" x="31" y="50" width="12" height="11">
<path d="M36.6367 60.6121C39.6159 60.6121 42.031 58.3632 42.031 55.589C42.031 52.8148 39.6159 50.5659 36.6367 50.5659C33.6575 50.5659 31.2423 52.8148 31.2423 55.589C31.2423 58.3632 33.6575 60.6121 36.6367 60.6121Z" fill="url(#paint22_linear_1_1273)"/>
</mask>
<g mask="url(#mask11_1_1273)">
<path d="M36.6367 60.6121C39.6159 60.6121 42.031 58.3632 42.031 55.589C42.031 52.8148 39.6159 50.5659 36.6367 50.5659C33.6575 50.5659 31.2423 52.8148 31.2423 55.589C31.2423 58.3632 33.6575 60.6121 36.6367 60.6121Z" fill="url(#paint23_linear_1_1273)"/>
</g>
<mask id="mask12_1_1273" style="mask-type:alpha" maskUnits="userSpaceOnUse" x="62" y="50" width="12" height="11">
<path d="M67.8791 60.6121C70.8583 60.6121 73.2735 58.3632 73.2735 55.589C73.2735 52.8148 70.8583 50.5659 67.8791 50.5659C64.8999 50.5659 62.4847 52.8148 62.4847 55.589C62.4847 58.3632 64.8999 60.6121 67.8791 60.6121Z" fill="url(#paint24_linear_1_1273)"/>
</mask>
<g mask="url(#mask12_1_1273)">
<path d="M67.8791 60.6121C70.8583 60.6121 73.2735 58.3632 73.2735 55.589C73.2735 52.8148 70.8583 50.5659 67.8791 50.5659C64.8999 50.5659 62.4847 52.8148 62.4847 55.589C62.4847 58.3632 64.8999 60.6121 67.8791 60.6121Z" fill="url(#paint25_linear_1_1273)"/>
</g>
<mask id="mask13_1_1273" style="mask-type:alpha" maskUnits="userSpaceOnUse" x="93" y="50" width="12" height="11">
<path d="M99.1216 60.6121C102.101 60.6121 104.516 58.3632 104.516 55.589C104.516 52.8148 102.101 50.5659 99.1216 50.5659C96.1423 50.5659 93.7272 52.8148 93.7272 55.589C93.7272 58.3632 96.1423 60.6121 99.1216 60.6121Z" fill="url(#paint26_linear_1_1273)"/>
</mask>
<g mask="url(#mask13_1_1273)">
<path d="M99.1216 60.6121C102.101 60.6121 104.516 58.3632 104.516 55.589C104.516 52.8148 102.101 50.5659 99.1216 50.5659C96.1423 50.5659 93.7272 52.8148 93.7272 55.589C93.7272 58.3632 96.1423 60.6121 99.1216 60.6121Z" fill="url(#paint27_linear_1_1273)"/>
</g>
<mask id="mask14_1_1273" style="mask-type:alpha" maskUnits="userSpaceOnUse" x="124" y="50" width="12" height="11">
<path d="M130.364 60.6121C133.343 60.6121 135.758 58.3632 135.758 55.589C135.758 52.8148 133.343 50.5659 130.364 50.5659C127.385 50.5659 124.969 52.8148 124.969 55.589C124.969 58.3632 127.385 60.6121 130.364 60.6121Z" fill="url(#paint28_linear_1_1273)"/>
</mask>
<g mask="url(#mask14_1_1273)">
<path d="M130.364 60.6121C133.343 60.6121 135.758 58.3632 135.758 55.589C135.758 52.8148 133.343 50.5659 130.364 50.5659C127.385 50.5659 124.969 52.8148 124.969 55.589C124.969 58.3632 127.385 60.6121 130.364 60.6121Z" fill="url(#paint29_linear_1_1273)"/>
</g>
<mask id="mask15_1_1273" style="mask-type:alpha" maskUnits="userSpaceOnUse" x="0" y="75" width="11" height="11">
<path d="M5.39436 85.8324C8.37358 85.8324 10.7887 83.5834 10.7887 80.8092C10.7887 78.035 8.37358 75.7861 5.39436 75.7861C2.41513 75.7861 0 78.035 0 80.8092C0 83.5834 2.41513 85.8324 5.39436 85.8324Z" fill="url(#paint30_linear_1_1273)"/>
</mask>
<g mask="url(#mask15_1_1273)">
<path d="M5.39436 85.8324C8.37358 85.8324 10.7887 83.5834 10.7887 80.8092C10.7887 78.035 8.37358 75.7861 5.39436 75.7861C2.41513 75.7861 0 78.035 0 80.8092C0 83.5834 2.41513 85.8324 5.39436 85.8324Z" fill="url(#paint31_linear_1_1273)"/>
</g>
<mask id="mask16_1_1273" style="mask-type:alpha" maskUnits="userSpaceOnUse" x="31" y="75" width="12" height="11">
<path d="M36.6367 85.8324C39.6159 85.8324 42.031 83.5834 42.031 80.8092C42.031 78.035 39.6159 75.7861 36.6367 75.7861C33.6575 75.7861 31.2423 78.035 31.2423 80.8092C31.2423 83.5834 33.6575 85.8324 36.6367 85.8324Z" fill="url(#paint32_linear_1_1273)"/>
</mask>
<g mask="url(#mask16_1_1273)">
<path d="M36.6367 85.8324C39.6159 85.8324 42.031 83.5834 42.031 80.8092C42.031 78.035 39.6159 75.7861 36.6367 75.7861C33.6575 75.7861 31.2423 78.035 31.2423 80.8092C31.2423 83.5834 33.6575 85.8324 36.6367 85.8324Z" fill="url(#paint33_linear_1_1273)"/>
</g>
<mask id="mask17_1_1273" style="mask-type:alpha" maskUnits="userSpaceOnUse" x="62" y="75" width="12" height="11">
<path d="M67.8791 85.8324C70.8583 85.8324 73.2735 83.5834 73.2735 80.8092C73.2735 78.035 70.8583 75.7861 67.8791 75.7861C64.8999 75.7861 62.4847 78.035 62.4847 80.8092C62.4847 83.5834 64.8999 85.8324 67.8791 85.8324Z" fill="url(#paint34_linear_1_1273)"/>
</mask>
<g mask="url(#mask17_1_1273)">
<path d="M67.8791 85.8324C70.8583 85.8324 73.2735 83.5834 73.2735 80.8092C73.2735 78.035 70.8583 75.7861 67.8791 75.7861C64.8999 75.7861 62.4847 78.035 62.4847 80.8092C62.4847 83.5834 64.8999 85.8324 67.8791 85.8324Z" fill="url(#paint35_linear_1_1273)"/>
</g>
<mask id="mask18_1_1273" style="mask-type:alpha" maskUnits="userSpaceOnUse" x="93" y="75" width="12" height="11">
<path d="M99.1216 85.8324C102.101 85.8324 104.516 83.5834 104.516 80.8092C104.516 78.035 102.101 75.7861 99.1216 75.7861C96.1423 75.7861 93.7272 78.035 93.7272 80.8092C93.7272 83.5834 96.1423 85.8324 99.1216 85.8324Z" fill="url(#paint36_linear_1_1273)"/>
</mask>
<g mask="url(#mask18_1_1273)">
<path d="M99.1216 85.8324C102.101 85.8324 104.516 83.5834 104.516 80.8092C104.516 78.035 102.101 75.7861 99.1216 75.7861C96.1423 75.7861 93.7272 78.035 93.7272 80.8092C93.7272 83.5834 96.1423 85.8324 99.1216 85.8324Z" fill="url(#paint37_linear_1_1273)"/>
</g>
<mask id="mask19_1_1273" style="mask-type:alpha" maskUnits="userSpaceOnUse" x="124" y="75" width="12" height="11">
<path d="M130.364 85.8324C133.343 85.8324 135.758 83.5834 135.758 80.8092C135.758 78.035 133.343 75.7861 130.364 75.7861C127.385 75.7861 124.969 78.035 124.969 80.8092C124.969 83.5834 127.385 85.8324 130.364 85.8324Z" fill="url(#paint38_linear_1_1273)"/>
</mask>
<g mask="url(#mask19_1_1273)">
<path d="M130.364 85.8324C133.343 85.8324 135.758 83.5834 135.758 80.8092C135.758 78.035 133.343 75.7861 130.364 75.7861C127.385 75.7861 124.969 78.035 124.969 80.8092C124.969 83.5834 127.385 85.8324 130.364 85.8324Z" fill="url(#paint39_linear_1_1273)"/>
</g>
<mask id="mask20_1_1273" style="mask-type:alpha" maskUnits="userSpaceOnUse" x="0" y="100" width="11" height="11">
<path d="M5.39436 111C8.37358 111 10.7887 108.751 10.7887 105.977C10.7887 103.203 8.37358 100.954 5.39436 100.954C2.41513 100.954 0 103.203 0 105.977C0 108.751 2.41513 111 5.39436 111Z" fill="url(#paint40_linear_1_1273)"/>
</mask>
<g mask="url(#mask20_1_1273)">
<path d="M5.39436 111C8.37358 111 10.7887 108.751 10.7887 105.977C10.7887 103.203 8.37358 100.954 5.39436 100.954C2.41513 100.954 0 103.203 0 105.977C0 108.751 2.41513 111 5.39436 111Z" fill="url(#paint41_linear_1_1273)"/>
</g>
<mask id="mask21_1_1273" style="mask-type:alpha" maskUnits="userSpaceOnUse" x="31" y="100" width="12" height="11">
<path d="M36.6367 111C39.6159 111 42.031 108.751 42.031 105.977C42.031 103.203 39.6159 100.954 36.6367 100.954C33.6575 100.954 31.2423 103.203 31.2423 105.977C31.2423 108.751 33.6575 111 36.6367 111Z" fill="url(#paint42_linear_1_1273)"/>
</mask>
<g mask="url(#mask21_1_1273)">
<path d="M36.6367 111C39.6159 111 42.031 108.751 42.031 105.977C42.031 103.203 39.6159 100.954 36.6367 100.954C33.6575 100.954 31.2423 103.203 31.2423 105.977C31.2423 108.751 33.6575 111 36.6367 111Z" fill="url(#paint43_linear_1_1273)"/>
</g>
<mask id="mask22_1_1273" style="mask-type:alpha" maskUnits="userSpaceOnUse" x="62" y="100" width="12" height="11">
<path d="M67.8791 111C70.8583 111 73.2735 108.751 73.2735 105.977C73.2735 103.203 70.8583 100.954 67.8791 100.954C64.8999 100.954 62.4847 103.203 62.4847 105.977C62.4847 108.751 64.8999 111 67.8791 111Z" fill="url(#paint44_linear_1_1273)"/>
</mask>
<g mask="url(#mask22_1_1273)">
<path d="M67.8791 111C70.8583 111 73.2735 108.751 73.2735 105.977C73.2735 103.203 70.8583 100.954 67.8791 100.954C64.8999 100.954 62.4847 103.203 62.4847 105.977C62.4847 108.751 64.8999 111 67.8791 111Z" fill="url(#paint45_linear_1_1273)"/>
</g>
<mask id="mask23_1_1273" style="mask-type:alpha" maskUnits="userSpaceOnUse" x="93" y="100" width="12" height="11">
<path d="M99.1216 111C102.101 111 104.516 108.751 104.516 105.977C104.516 103.203 102.101 100.954 99.1216 100.954C96.1423 100.954 93.7272 103.203 93.7272 105.977C93.7272 108.751 96.1423 111 99.1216 111Z" fill="url(#paint46_linear_1_1273)"/>
</mask>
<g mask="url(#mask23_1_1273)">
<path d="M99.1216 111C102.101 111 104.516 108.751 104.516 105.977C104.516 103.203 102.101 100.954 99.1216 100.954C96.1423 100.954 93.7272 103.203 93.7272 105.977C93.7272 108.751 96.1423 111 99.1216 111Z" fill="url(#paint47_linear_1_1273)"/>
</g>
<mask id="mask24_1_1273" style="mask-type:alpha" maskUnits="userSpaceOnUse" x="124" y="100" width="12" height="11">
<path d="M130.364 111C133.343 111 135.758 108.751 135.758 105.977C135.758 103.203 133.343 100.954 130.364 100.954C127.385 100.954 124.969 103.203 124.969 105.977C124.969 108.751 127.385 111 130.364 111Z" fill="url(#paint48_linear_1_1273)"/>
</mask>
<g mask="url(#mask24_1_1273)">
<path d="M130.364 111C133.343 111 135.758 108.751 135.758 105.977C135.758 103.203 133.343 100.954 130.364 100.954C127.385 100.954 124.969 103.203 124.969 105.977C124.969 108.751 127.385 111 130.364 111Z" fill="url(#paint49_linear_1_1273)"/>
</g>
</g>
<defs>
<linearGradient id="paint0_linear_1_1273" x1="56.7419" y1="126.548" x2="-8.64082" y2="-51.6909" gradientUnits="userSpaceOnUse">
<stop stop-color="white"/>
<stop offset="1" stop-color="white"/>
</linearGradient>
<linearGradient id="paint1_linear_1_1273" x1="56.7419" y1="126.548" x2="-8.64082" y2="-51.6909" gradientUnits="userSpaceOnUse">
<stop stop-color="white"/>
<stop offset="1" stop-color="white"/>
</linearGradient>
<linearGradient id="paint2_linear_1_1273" x1="87.9843" y1="126.548" x2="22.6016" y2="-51.6909" gradientUnits="userSpaceOnUse">
<stop stop-color="white"/>
<stop offset="1" stop-color="white"/>
</linearGradient>
<linearGradient id="paint3_linear_1_1273" x1="87.9843" y1="126.548" x2="22.6016" y2="-51.6909" gradientUnits="userSpaceOnUse">
<stop stop-color="white"/>
<stop offset="1" stop-color="white"/>
</linearGradient>
<linearGradient id="paint4_linear_1_1273" x1="119.227" y1="126.548" x2="53.844" y2="-51.6909" gradientUnits="userSpaceOnUse">
<stop stop-color="white"/>
<stop offset="1" stop-color="white"/>
</linearGradient>
<linearGradient id="paint5_linear_1_1273" x1="119.227" y1="126.548" x2="53.844" y2="-51.6909" gradientUnits="userSpaceOnUse">
<stop stop-color="white"/>
<stop offset="1" stop-color="white"/>
</linearGradient>
<linearGradient id="paint6_linear_1_1273" x1="150.469" y1="126.548" x2="85.0865" y2="-51.6909" gradientUnits="userSpaceOnUse">
<stop stop-color="white"/>
<stop offset="1" stop-color="white"/>
</linearGradient>
<linearGradient id="paint7_linear_1_1273" x1="150.469" y1="126.548" x2="85.0865" y2="-51.6909" gradientUnits="userSpaceOnUse">
<stop stop-color="white"/>
<stop offset="1" stop-color="white"/>
</linearGradient>
<linearGradient id="paint8_linear_1_1273" x1="181.711" y1="126.548" x2="116.329" y2="-51.6909" gradientUnits="userSpaceOnUse">
<stop stop-color="white"/>
<stop offset="1" stop-color="white"/>
</linearGradient>
<linearGradient id="paint9_linear_1_1273" x1="181.711" y1="126.548" x2="116.329" y2="-51.6909" gradientUnits="userSpaceOnUse">
<stop stop-color="white"/>
<stop offset="1" stop-color="white"/>
</linearGradient>
<linearGradient id="paint10_linear_1_1273" x1="56.7419" y1="151.767" x2="-8.63969" y2="-26.4706" gradientUnits="userSpaceOnUse">
<stop stop-color="white"/>
<stop offset="1" stop-color="white"/>
</linearGradient>
<linearGradient id="paint11_linear_1_1273" x1="56.7419" y1="151.767" x2="-8.63969" y2="-26.4706" gradientUnits="userSpaceOnUse">
<stop stop-color="white"/>
<stop offset="1" stop-color="white"/>
</linearGradient>
<linearGradient id="paint12_linear_1_1273" x1="87.9843" y1="151.767" x2="22.6028" y2="-26.4706" gradientUnits="userSpaceOnUse">
<stop stop-color="white"/>
<stop offset="1" stop-color="white"/>
</linearGradient>
<linearGradient id="paint13_linear_1_1273" x1="87.9843" y1="151.767" x2="22.6028" y2="-26.4706" gradientUnits="userSpaceOnUse">
<stop stop-color="white"/>
<stop offset="1" stop-color="white"/>
</linearGradient>
<linearGradient id="paint14_linear_1_1273" x1="119.227" y1="151.767" x2="53.8452" y2="-26.4706" gradientUnits="userSpaceOnUse">
<stop stop-color="white"/>
<stop offset="1" stop-color="white"/>
</linearGradient>
<linearGradient id="paint15_linear_1_1273" x1="119.227" y1="151.767" x2="53.8452" y2="-26.4706" gradientUnits="userSpaceOnUse">
<stop stop-color="white"/>
<stop offset="1" stop-color="white"/>
</linearGradient>
<linearGradient id="paint16_linear_1_1273" x1="150.469" y1="151.767" x2="85.0876" y2="-26.4706" gradientUnits="userSpaceOnUse">
<stop stop-color="white"/>
<stop offset="1" stop-color="white"/>
</linearGradient>
<linearGradient id="paint17_linear_1_1273" x1="150.469" y1="151.767" x2="85.0876" y2="-26.4706" gradientUnits="userSpaceOnUse">
<stop stop-color="white"/>
<stop offset="1" stop-color="white"/>
</linearGradient>
<linearGradient id="paint18_linear_1_1273" x1="181.711" y1="151.767" x2="116.33" y2="-26.4706" gradientUnits="userSpaceOnUse">
<stop stop-color="white"/>
<stop offset="1" stop-color="white"/>
</linearGradient>
<linearGradient id="paint19_linear_1_1273" x1="181.711" y1="151.767" x2="116.33" y2="-26.4706" gradientUnits="userSpaceOnUse">
<stop stop-color="white"/>
<stop offset="1" stop-color="white"/>
</linearGradient>
<linearGradient id="paint20_linear_1_1273" x1="56.7419" y1="176.936" x2="-8.64082" y2="-1.30269" gradientUnits="userSpaceOnUse">
<stop stop-color="white"/>
<stop offset="1" stop-color="white"/>
</linearGradient>
<linearGradient id="paint21_linear_1_1273" x1="56.7419" y1="176.936" x2="-8.64082" y2="-1.30269" gradientUnits="userSpaceOnUse">
<stop stop-color="white"/>
<stop offset="1" stop-color="white"/>
</linearGradient>
<linearGradient id="paint22_linear_1_1273" x1="87.9843" y1="176.936" x2="22.6016" y2="-1.30275" gradientUnits="userSpaceOnUse">
<stop stop-color="white"/>
<stop offset="1" stop-color="white"/>
</linearGradient>
<linearGradient id="paint23_linear_1_1273" x1="87.9843" y1="176.936" x2="22.6016" y2="-1.30275" gradientUnits="userSpaceOnUse">
<stop stop-color="white"/>
<stop offset="1" stop-color="white"/>
</linearGradient>
<linearGradient id="paint24_linear_1_1273" x1="119.227" y1="176.936" x2="53.844" y2="-1.30275" gradientUnits="userSpaceOnUse">
<stop stop-color="white"/>
<stop offset="1" stop-color="white"/>
</linearGradient>
<linearGradient id="paint25_linear_1_1273" x1="119.227" y1="176.936" x2="53.844" y2="-1.30275" gradientUnits="userSpaceOnUse">
<stop stop-color="white"/>
<stop offset="1" stop-color="white"/>
</linearGradient>
<linearGradient id="paint26_linear_1_1273" x1="150.469" y1="176.936" x2="85.0865" y2="-1.30275" gradientUnits="userSpaceOnUse">
<stop stop-color="white"/>
<stop offset="1" stop-color="white"/>
</linearGradient>
<linearGradient id="paint27_linear_1_1273" x1="150.469" y1="176.936" x2="85.0865" y2="-1.30275" gradientUnits="userSpaceOnUse">
<stop stop-color="white"/>
<stop offset="1" stop-color="white"/>
</linearGradient>
<linearGradient id="paint28_linear_1_1273" x1="181.711" y1="176.936" x2="116.329" y2="-1.30275" gradientUnits="userSpaceOnUse">
<stop stop-color="white"/>
<stop offset="1" stop-color="white"/>
</linearGradient>
<linearGradient id="paint29_linear_1_1273" x1="181.711" y1="176.936" x2="116.329" y2="-1.30275" gradientUnits="userSpaceOnUse">
<stop stop-color="white"/>
<stop offset="1" stop-color="white"/>
</linearGradient>
<linearGradient id="paint30_linear_1_1273" x1="56.7419" y1="202.156" x2="-8.64082" y2="23.9175" gradientUnits="userSpaceOnUse">
<stop stop-color="white"/>
<stop offset="1" stop-color="white"/>
</linearGradient>
<linearGradient id="paint31_linear_1_1273" x1="56.7419" y1="202.156" x2="-8.64082" y2="23.9175" gradientUnits="userSpaceOnUse">
<stop stop-color="white"/>
<stop offset="1" stop-color="white"/>
</linearGradient>
<linearGradient id="paint32_linear_1_1273" x1="87.9843" y1="202.156" x2="22.6016" y2="23.9175" gradientUnits="userSpaceOnUse">
<stop stop-color="white"/>
<stop offset="1" stop-color="white"/>
</linearGradient>
<linearGradient id="paint33_linear_1_1273" x1="87.9843" y1="202.156" x2="22.6016" y2="23.9175" gradientUnits="userSpaceOnUse">
<stop stop-color="white"/>
<stop offset="1" stop-color="white"/>
</linearGradient>
<linearGradient id="paint34_linear_1_1273" x1="119.227" y1="202.156" x2="53.844" y2="23.9175" gradientUnits="userSpaceOnUse">
<stop stop-color="white"/>
<stop offset="1" stop-color="white"/>
</linearGradient>
<linearGradient id="paint35_linear_1_1273" x1="119.227" y1="202.156" x2="53.844" y2="23.9175" gradientUnits="userSpaceOnUse">
<stop stop-color="white"/>
<stop offset="1" stop-color="white"/>
</linearGradient>
<linearGradient id="paint36_linear_1_1273" x1="150.469" y1="202.156" x2="85.0865" y2="23.9175" gradientUnits="userSpaceOnUse">
<stop stop-color="white"/>
<stop offset="1" stop-color="white"/>
</linearGradient>
<linearGradient id="paint37_linear_1_1273" x1="150.469" y1="202.156" x2="85.0865" y2="23.9175" gradientUnits="userSpaceOnUse">
<stop stop-color="white"/>
<stop offset="1" stop-color="white"/>
</linearGradient>
<linearGradient id="paint38_linear_1_1273" x1="181.711" y1="202.156" x2="116.329" y2="23.9175" gradientUnits="userSpaceOnUse">
<stop stop-color="white"/>
<stop offset="1" stop-color="white"/>
</linearGradient>
<linearGradient id="paint39_linear_1_1273" x1="181.711" y1="202.156" x2="116.329" y2="23.9175" gradientUnits="userSpaceOnUse">
<stop stop-color="white"/>
<stop offset="1" stop-color="white"/>
</linearGradient>
<linearGradient id="paint40_linear_1_1273" x1="56.7419" y1="227.324" x2="-8.64082" y2="49.0852" gradientUnits="userSpaceOnUse">
<stop stop-color="white"/>
<stop offset="1" stop-color="white"/>
</linearGradient>
<linearGradient id="paint41_linear_1_1273" x1="56.7419" y1="227.324" x2="-8.64082" y2="49.0852" gradientUnits="userSpaceOnUse">
<stop stop-color="white"/>
<stop offset="1" stop-color="white"/>
</linearGradient>
<linearGradient id="paint42_linear_1_1273" x1="87.9843" y1="227.324" x2="22.6016" y2="49.0852" gradientUnits="userSpaceOnUse">
<stop stop-color="white"/>
<stop offset="1" stop-color="white"/>
</linearGradient>
<linearGradient id="paint43_linear_1_1273" x1="87.9843" y1="227.324" x2="22.6016" y2="49.0852" gradientUnits="userSpaceOnUse">
<stop stop-color="white"/>
<stop offset="1" stop-color="white"/>
</linearGradient>
<linearGradient id="paint44_linear_1_1273" x1="119.227" y1="227.324" x2="53.844" y2="49.0852" gradientUnits="userSpaceOnUse">
<stop stop-color="white"/>
<stop offset="1" stop-color="white"/>
</linearGradient>
<linearGradient id="paint45_linear_1_1273" x1="119.227" y1="227.324" x2="53.844" y2="49.0852" gradientUnits="userSpaceOnUse">
<stop stop-color="white"/>
<stop offset="1" stop-color="white"/>
</linearGradient>
<linearGradient id="paint46_linear_1_1273" x1="150.469" y1="227.324" x2="85.0865" y2="49.0852" gradientUnits="userSpaceOnUse">
<stop stop-color="white"/>
<stop offset="1" stop-color="white"/>
</linearGradient>
<linearGradient id="paint47_linear_1_1273" x1="150.469" y1="227.324" x2="85.0865" y2="49.0852" gradientUnits="userSpaceOnUse">
<stop stop-color="white"/>
<stop offset="1" stop-color="white"/>
</linearGradient>
<linearGradient id="paint48_linear_1_1273" x1="181.711" y1="227.324" x2="116.329" y2="49.0852" gradientUnits="userSpaceOnUse">
<stop stop-color="white"/>
<stop offset="1" stop-color="white"/>
</linearGradient>
<linearGradient id="paint49_linear_1_1273" x1="181.711" y1="227.324" x2="116.329" y2="49.0852" gradientUnits="userSpaceOnUse">
<stop stop-color="white"/>
<stop offset="1" stop-color="white"/>
</linearGradient>
</defs>
</svg>
