<svg width="137" height="111" viewBox="0 0 137 111" fill="none" xmlns="http://www.w3.org/2000/svg">
<g opacity="0.3">
<mask id="mask0_1_1132" style="mask-type:alpha" maskUnits="userSpaceOnUse" x="0" y="0" width="12" height="11">
<path d="M5.71186 10.0462C8.69109 10.0462 11.1062 7.79726 11.1062 5.02308C11.1062 2.2489 8.69109 0 5.71186 0C2.73264 0 0.317505 2.2489 0.317505 5.02308C0.317505 7.79726 2.73264 10.0462 5.71186 10.0462Z" fill="url(#paint0_linear_1_1132)"/>
</mask>
<g mask="url(#mask0_1_1132)">
<path d="M5.71186 10.0462C8.69109 10.0462 11.1062 7.79726 11.1062 5.02308C11.1062 2.2489 8.69109 0 5.71186 0C2.73264 0 0.317505 2.2489 0.317505 5.02308C0.317505 7.79726 2.73264 10.0462 5.71186 10.0462Z" fill="url(#paint1_linear_1_1132)"/>
</g>
<mask id="mask1_1_1132" style="mask-type:alpha" maskUnits="userSpaceOnUse" x="31" y="0" width="12" height="11">
<path d="M36.9542 10.0462C39.9334 10.0462 42.3486 7.79726 42.3486 5.02308C42.3486 2.2489 39.9334 0 36.9542 0C33.975 0 31.5598 2.2489 31.5598 5.02308C31.5598 7.79726 33.975 10.0462 36.9542 10.0462Z" fill="url(#paint2_linear_1_1132)"/>
</mask>
<g mask="url(#mask1_1_1132)">
<path d="M36.9542 10.0462C39.9334 10.0462 42.3486 7.79726 42.3486 5.02308C42.3486 2.2489 39.9334 0 36.9542 0C33.975 0 31.5598 2.2489 31.5598 5.02308C31.5598 7.79726 33.975 10.0462 36.9542 10.0462Z" fill="url(#paint3_linear_1_1132)"/>
</g>
<mask id="mask2_1_1132" style="mask-type:alpha" maskUnits="userSpaceOnUse" x="62" y="0" width="12" height="11">
<path d="M68.1965 10.0462C71.1758 10.0462 73.5909 7.79726 73.5909 5.02308C73.5909 2.2489 71.1758 0 68.1965 0C65.2173 0 62.8022 2.2489 62.8022 5.02308C62.8022 7.79726 65.2173 10.0462 68.1965 10.0462Z" fill="url(#paint4_linear_1_1132)"/>
</mask>
<g mask="url(#mask2_1_1132)">
<path d="M68.1965 10.0462C71.1758 10.0462 73.5909 7.79726 73.5909 5.02308C73.5909 2.2489 71.1758 0 68.1965 0C65.2173 0 62.8022 2.2489 62.8022 5.02308C62.8022 7.79726 65.2173 10.0462 68.1965 10.0462Z" fill="url(#paint5_linear_1_1132)"/>
</g>
<mask id="mask3_1_1132" style="mask-type:alpha" maskUnits="userSpaceOnUse" x="94" y="0" width="11" height="11">
<path d="M99.4389 10.0462C102.418 10.0462 104.833 7.79726 104.833 5.02308C104.833 2.2489 102.418 0 99.4389 0C96.4597 0 94.0446 2.2489 94.0446 5.02308C94.0446 7.79726 96.4597 10.0462 99.4389 10.0462Z" fill="url(#paint6_linear_1_1132)"/>
</mask>
<g mask="url(#mask3_1_1132)">
<path d="M99.4389 10.0462C102.418 10.0462 104.833 7.79726 104.833 5.02308C104.833 2.2489 102.418 0 99.4389 0C96.4597 0 94.0446 2.2489 94.0446 5.02308C94.0446 7.79726 96.4597 10.0462 99.4389 10.0462Z" fill="url(#paint7_linear_1_1132)"/>
</g>
<mask id="mask4_1_1132" style="mask-type:alpha" maskUnits="userSpaceOnUse" x="125" y="0" width="12" height="11">
<path d="M130.681 10.0462C133.661 10.0462 136.076 7.79726 136.076 5.02308C136.076 2.2489 133.661 0 130.681 0C127.702 0 125.287 2.2489 125.287 5.02308C125.287 7.79726 127.702 10.0462 130.681 10.0462Z" fill="url(#paint8_linear_1_1132)"/>
</mask>
<g mask="url(#mask4_1_1132)">
<path d="M130.681 10.0462C133.661 10.0462 136.076 7.79726 136.076 5.02308C136.076 2.2489 133.661 0 130.681 0C127.702 0 125.287 2.2489 125.287 5.02308C125.287 7.79726 127.702 10.0462 130.681 10.0462Z" fill="url(#paint9_linear_1_1132)"/>
</g>
<mask id="mask5_1_1132" style="mask-type:alpha" maskUnits="userSpaceOnUse" x="0" y="25" width="12" height="11">
<path d="M5.71186 35.2663C8.69109 35.2663 11.1062 33.0175 11.1062 30.2433C11.1062 27.4691 8.69109 25.2202 5.71186 25.2202C2.73264 25.2202 0.317505 27.4691 0.317505 30.2433C0.317505 33.0175 2.73264 35.2663 5.71186 35.2663Z" fill="url(#paint10_linear_1_1132)"/>
</mask>
<g mask="url(#mask5_1_1132)">
<path d="M5.71186 35.2663C8.69109 35.2663 11.1062 33.0175 11.1062 30.2433C11.1062 27.4691 8.69109 25.2202 5.71186 25.2202C2.73264 25.2202 0.317505 27.4691 0.317505 30.2433C0.317505 33.0175 2.73264 35.2663 5.71186 35.2663Z" fill="url(#paint11_linear_1_1132)"/>
</g>
<mask id="mask6_1_1132" style="mask-type:alpha" maskUnits="userSpaceOnUse" x="31" y="25" width="12" height="11">
<path d="M36.9542 35.2663C39.9334 35.2663 42.3486 33.0175 42.3486 30.2433C42.3486 27.4691 39.9334 25.2202 36.9542 25.2202C33.975 25.2202 31.5598 27.4691 31.5598 30.2433C31.5598 33.0175 33.975 35.2663 36.9542 35.2663Z" fill="url(#paint12_linear_1_1132)"/>
</mask>
<g mask="url(#mask6_1_1132)">
<path d="M36.9542 35.2663C39.9334 35.2663 42.3486 33.0175 42.3486 30.2433C42.3486 27.4691 39.9334 25.2202 36.9542 25.2202C33.975 25.2202 31.5598 27.4691 31.5598 30.2433C31.5598 33.0175 33.975 35.2663 36.9542 35.2663Z" fill="url(#paint13_linear_1_1132)"/>
</g>
<mask id="mask7_1_1132" style="mask-type:alpha" maskUnits="userSpaceOnUse" x="62" y="25" width="12" height="11">
<path d="M68.1966 35.2663C71.1758 35.2663 73.5909 33.0175 73.5909 30.2433C73.5909 27.4691 71.1758 25.2202 68.1966 25.2202C65.2173 25.2202 62.8022 27.4691 62.8022 30.2433C62.8022 33.0175 65.2173 35.2663 68.1966 35.2663Z" fill="url(#paint14_linear_1_1132)"/>
</mask>
<g mask="url(#mask7_1_1132)">
<path d="M68.1966 35.2663C71.1758 35.2663 73.5909 33.0175 73.5909 30.2433C73.5909 27.4691 71.1758 25.2202 68.1966 25.2202C65.2173 25.2202 62.8022 27.4691 62.8022 30.2433C62.8022 33.0175 65.2173 35.2663 68.1966 35.2663Z" fill="url(#paint15_linear_1_1132)"/>
</g>
<mask id="mask8_1_1132" style="mask-type:alpha" maskUnits="userSpaceOnUse" x="94" y="25" width="11" height="11">
<path d="M99.4389 35.2663C102.418 35.2663 104.833 33.0175 104.833 30.2433C104.833 27.4691 102.418 25.2202 99.4389 25.2202C96.4597 25.2202 94.0446 27.4691 94.0446 30.2433C94.0446 33.0175 96.4597 35.2663 99.4389 35.2663Z" fill="url(#paint16_linear_1_1132)"/>
</mask>
<g mask="url(#mask8_1_1132)">
<path d="M99.4389 35.2663C102.418 35.2663 104.833 33.0175 104.833 30.2433C104.833 27.4691 102.418 25.2202 99.4389 25.2202C96.4597 25.2202 94.0446 27.4691 94.0446 30.2433C94.0446 33.0175 96.4597 35.2663 99.4389 35.2663Z" fill="url(#paint17_linear_1_1132)"/>
</g>
<mask id="mask9_1_1132" style="mask-type:alpha" maskUnits="userSpaceOnUse" x="125" y="25" width="12" height="11">
<path d="M130.681 35.2663C133.661 35.2663 136.076 33.0175 136.076 30.2433C136.076 27.4691 133.661 25.2202 130.681 25.2202C127.702 25.2202 125.287 27.4691 125.287 30.2433C125.287 33.0175 127.702 35.2663 130.681 35.2663Z" fill="url(#paint18_linear_1_1132)"/>
</mask>
<g mask="url(#mask9_1_1132)">
<path d="M130.681 35.2663C133.661 35.2663 136.076 33.0175 136.076 30.2433C136.076 27.4691 133.661 25.2202 130.681 25.2202C127.702 25.2202 125.287 27.4691 125.287 30.2433C125.287 33.0175 127.702 35.2663 130.681 35.2663Z" fill="url(#paint19_linear_1_1132)"/>
</g>
<mask id="mask10_1_1132" style="mask-type:alpha" maskUnits="userSpaceOnUse" x="0" y="50" width="12" height="11">
<path d="M5.71186 60.4342C8.69109 60.4342 11.1062 58.1853 11.1062 55.4111C11.1062 52.6369 8.69109 50.3879 5.71186 50.3879C2.73264 50.3879 0.317505 52.6369 0.317505 55.4111C0.317505 58.1853 2.73264 60.4342 5.71186 60.4342Z" fill="url(#paint20_linear_1_1132)"/>
</mask>
<g mask="url(#mask10_1_1132)">
<path d="M5.71186 60.4342C8.69109 60.4342 11.1062 58.1853 11.1062 55.4111C11.1062 52.6369 8.69109 50.3879 5.71186 50.3879C2.73264 50.3879 0.317505 52.6369 0.317505 55.4111C0.317505 58.1853 2.73264 60.4342 5.71186 60.4342Z" fill="url(#paint21_linear_1_1132)"/>
</g>
<mask id="mask11_1_1132" style="mask-type:alpha" maskUnits="userSpaceOnUse" x="31" y="50" width="12" height="11">
<path d="M36.9542 60.4342C39.9334 60.4342 42.3486 58.1853 42.3486 55.4111C42.3486 52.6369 39.9334 50.3879 36.9542 50.3879C33.975 50.3879 31.5598 52.6369 31.5598 55.4111C31.5598 58.1853 33.975 60.4342 36.9542 60.4342Z" fill="url(#paint22_linear_1_1132)"/>
</mask>
<g mask="url(#mask11_1_1132)">
<path d="M36.9542 60.4342C39.9334 60.4342 42.3486 58.1853 42.3486 55.4111C42.3486 52.6369 39.9334 50.3879 36.9542 50.3879C33.975 50.3879 31.5598 52.6369 31.5598 55.4111C31.5598 58.1853 33.975 60.4342 36.9542 60.4342Z" fill="url(#paint23_linear_1_1132)"/>
</g>
<mask id="mask12_1_1132" style="mask-type:alpha" maskUnits="userSpaceOnUse" x="62" y="50" width="12" height="11">
<path d="M68.1966 60.4342C71.1758 60.4342 73.5909 58.1853 73.5909 55.4111C73.5909 52.6369 71.1758 50.3879 68.1966 50.3879C65.2173 50.3879 62.8022 52.6369 62.8022 55.4111C62.8022 58.1853 65.2173 60.4342 68.1966 60.4342Z" fill="url(#paint24_linear_1_1132)"/>
</mask>
<g mask="url(#mask12_1_1132)">
<path d="M68.1966 60.4342C71.1758 60.4342 73.5909 58.1853 73.5909 55.4111C73.5909 52.6369 71.1758 50.3879 68.1966 50.3879C65.2173 50.3879 62.8022 52.6369 62.8022 55.4111C62.8022 58.1853 65.2173 60.4342 68.1966 60.4342Z" fill="url(#paint25_linear_1_1132)"/>
</g>
<mask id="mask13_1_1132" style="mask-type:alpha" maskUnits="userSpaceOnUse" x="94" y="50" width="11" height="11">
<path d="M99.4389 60.4342C102.418 60.4342 104.833 58.1853 104.833 55.4111C104.833 52.6369 102.418 50.3879 99.4389 50.3879C96.4597 50.3879 94.0446 52.6369 94.0446 55.4111C94.0446 58.1853 96.4597 60.4342 99.4389 60.4342Z" fill="url(#paint26_linear_1_1132)"/>
</mask>
<g mask="url(#mask13_1_1132)">
<path d="M99.4389 60.4342C102.418 60.4342 104.833 58.1853 104.833 55.4111C104.833 52.6369 102.418 50.3879 99.4389 50.3879C96.4597 50.3879 94.0446 52.6369 94.0446 55.4111C94.0446 58.1853 96.4597 60.4342 99.4389 60.4342Z" fill="url(#paint27_linear_1_1132)"/>
</g>
<mask id="mask14_1_1132" style="mask-type:alpha" maskUnits="userSpaceOnUse" x="125" y="50" width="12" height="11">
<path d="M130.681 60.4342C133.661 60.4342 136.076 58.1853 136.076 55.4111C136.076 52.6369 133.661 50.3879 130.681 50.3879C127.702 50.3879 125.287 52.6369 125.287 55.4111C125.287 58.1853 127.702 60.4342 130.681 60.4342Z" fill="url(#paint28_linear_1_1132)"/>
</mask>
<g mask="url(#mask14_1_1132)">
<path d="M130.681 60.4342C133.661 60.4342 136.076 58.1853 136.076 55.4111C136.076 52.6369 133.661 50.3879 130.681 50.3879C127.702 50.3879 125.287 52.6369 125.287 55.4111C125.287 58.1853 127.702 60.4342 130.681 60.4342Z" fill="url(#paint29_linear_1_1132)"/>
</g>
<mask id="mask15_1_1132" style="mask-type:alpha" maskUnits="userSpaceOnUse" x="0" y="75" width="12" height="11">
<path d="M5.71186 85.6544C8.69109 85.6544 11.1062 83.4054 11.1062 80.6312C11.1062 77.8571 8.69109 75.6082 5.71186 75.6082C2.73264 75.6082 0.317505 77.8571 0.317505 80.6312C0.317505 83.4054 2.73264 85.6544 5.71186 85.6544Z" fill="url(#paint30_linear_1_1132)"/>
</mask>
<g mask="url(#mask15_1_1132)">
<path d="M5.71186 85.6544C8.69109 85.6544 11.1062 83.4054 11.1062 80.6312C11.1062 77.8571 8.69109 75.6082 5.71186 75.6082C2.73264 75.6082 0.317505 77.8571 0.317505 80.6312C0.317505 83.4054 2.73264 85.6544 5.71186 85.6544Z" fill="url(#paint31_linear_1_1132)"/>
</g>
<mask id="mask16_1_1132" style="mask-type:alpha" maskUnits="userSpaceOnUse" x="31" y="75" width="12" height="11">
<path d="M36.9542 85.6544C39.9334 85.6544 42.3486 83.4054 42.3486 80.6312C42.3486 77.8571 39.9334 75.6082 36.9542 75.6082C33.975 75.6082 31.5598 77.8571 31.5598 80.6312C31.5598 83.4054 33.975 85.6544 36.9542 85.6544Z" fill="url(#paint32_linear_1_1132)"/>
</mask>
<g mask="url(#mask16_1_1132)">
<path d="M36.9542 85.6544C39.9334 85.6544 42.3486 83.4054 42.3486 80.6312C42.3486 77.8571 39.9334 75.6082 36.9542 75.6082C33.975 75.6082 31.5598 77.8571 31.5598 80.6312C31.5598 83.4054 33.975 85.6544 36.9542 85.6544Z" fill="url(#paint33_linear_1_1132)"/>
</g>
<mask id="mask17_1_1132" style="mask-type:alpha" maskUnits="userSpaceOnUse" x="62" y="75" width="12" height="11">
<path d="M68.1966 85.6544C71.1758 85.6544 73.5909 83.4054 73.5909 80.6312C73.5909 77.8571 71.1758 75.6082 68.1966 75.6082C65.2173 75.6082 62.8022 77.8571 62.8022 80.6312C62.8022 83.4054 65.2173 85.6544 68.1966 85.6544Z" fill="url(#paint34_linear_1_1132)"/>
</mask>
<g mask="url(#mask17_1_1132)">
<path d="M68.1966 85.6544C71.1758 85.6544 73.5909 83.4054 73.5909 80.6312C73.5909 77.8571 71.1758 75.6082 68.1966 75.6082C65.2173 75.6082 62.8022 77.8571 62.8022 80.6312C62.8022 83.4054 65.2173 85.6544 68.1966 85.6544Z" fill="url(#paint35_linear_1_1132)"/>
</g>
<mask id="mask18_1_1132" style="mask-type:alpha" maskUnits="userSpaceOnUse" x="94" y="75" width="11" height="11">
<path d="M99.4389 85.6544C102.418 85.6544 104.833 83.4054 104.833 80.6312C104.833 77.8571 102.418 75.6082 99.4389 75.6082C96.4597 75.6082 94.0446 77.8571 94.0446 80.6312C94.0446 83.4054 96.4597 85.6544 99.4389 85.6544Z" fill="url(#paint36_linear_1_1132)"/>
</mask>
<g mask="url(#mask18_1_1132)">
<path d="M99.4389 85.6544C102.418 85.6544 104.833 83.4054 104.833 80.6312C104.833 77.8571 102.418 75.6082 99.4389 75.6082C96.4597 75.6082 94.0446 77.8571 94.0446 80.6312C94.0446 83.4054 96.4597 85.6544 99.4389 85.6544Z" fill="url(#paint37_linear_1_1132)"/>
</g>
<mask id="mask19_1_1132" style="mask-type:alpha" maskUnits="userSpaceOnUse" x="125" y="75" width="12" height="11">
<path d="M130.681 85.6544C133.661 85.6544 136.076 83.4054 136.076 80.6312C136.076 77.8571 133.661 75.6082 130.681 75.6082C127.702 75.6082 125.287 77.8571 125.287 80.6312C125.287 83.4054 127.702 85.6544 130.681 85.6544Z" fill="url(#paint38_linear_1_1132)"/>
</mask>
<g mask="url(#mask19_1_1132)">
<path d="M130.681 85.6544C133.661 85.6544 136.076 83.4054 136.076 80.6312C136.076 77.8571 133.661 75.6082 130.681 75.6082C127.702 75.6082 125.287 77.8571 125.287 80.6312C125.287 83.4054 127.702 85.6544 130.681 85.6544Z" fill="url(#paint39_linear_1_1132)"/>
</g>
<mask id="mask20_1_1132" style="mask-type:alpha" maskUnits="userSpaceOnUse" x="0" y="100" width="12" height="11">
<path d="M5.71186 110.822C8.69109 110.822 11.1062 108.573 11.1062 105.799C11.1062 103.025 8.69109 100.776 5.71186 100.776C2.73264 100.776 0.317505 103.025 0.317505 105.799C0.317505 108.573 2.73264 110.822 5.71186 110.822Z" fill="url(#paint40_linear_1_1132)"/>
</mask>
<g mask="url(#mask20_1_1132)">
<path d="M5.71186 110.822C8.69109 110.822 11.1062 108.573 11.1062 105.799C11.1062 103.025 8.69109 100.776 5.71186 100.776C2.73264 100.776 0.317505 103.025 0.317505 105.799C0.317505 108.573 2.73264 110.822 5.71186 110.822Z" fill="url(#paint41_linear_1_1132)"/>
</g>
<mask id="mask21_1_1132" style="mask-type:alpha" maskUnits="userSpaceOnUse" x="31" y="100" width="12" height="11">
<path d="M36.9542 110.822C39.9334 110.822 42.3486 108.573 42.3486 105.799C42.3486 103.025 39.9334 100.776 36.9542 100.776C33.975 100.776 31.5598 103.025 31.5598 105.799C31.5598 108.573 33.975 110.822 36.9542 110.822Z" fill="url(#paint42_linear_1_1132)"/>
</mask>
<g mask="url(#mask21_1_1132)">
<path d="M36.9542 110.822C39.9334 110.822 42.3486 108.573 42.3486 105.799C42.3486 103.025 39.9334 100.776 36.9542 100.776C33.975 100.776 31.5598 103.025 31.5598 105.799C31.5598 108.573 33.975 110.822 36.9542 110.822Z" fill="url(#paint43_linear_1_1132)"/>
</g>
<mask id="mask22_1_1132" style="mask-type:alpha" maskUnits="userSpaceOnUse" x="62" y="100" width="12" height="11">
<path d="M68.1966 110.822C71.1758 110.822 73.5909 108.573 73.5909 105.799C73.5909 103.025 71.1758 100.776 68.1966 100.776C65.2173 100.776 62.8022 103.025 62.8022 105.799C62.8022 108.573 65.2173 110.822 68.1966 110.822Z" fill="url(#paint44_linear_1_1132)"/>
</mask>
<g mask="url(#mask22_1_1132)">
<path d="M68.1966 110.822C71.1758 110.822 73.5909 108.573 73.5909 105.799C73.5909 103.025 71.1758 100.776 68.1966 100.776C65.2173 100.776 62.8022 103.025 62.8022 105.799C62.8022 108.573 65.2173 110.822 68.1966 110.822Z" fill="url(#paint45_linear_1_1132)"/>
</g>
<mask id="mask23_1_1132" style="mask-type:alpha" maskUnits="userSpaceOnUse" x="94" y="100" width="11" height="11">
<path d="M99.4389 110.822C102.418 110.822 104.833 108.573 104.833 105.799C104.833 103.025 102.418 100.776 99.4389 100.776C96.4597 100.776 94.0446 103.025 94.0446 105.799C94.0446 108.573 96.4597 110.822 99.4389 110.822Z" fill="url(#paint46_linear_1_1132)"/>
</mask>
<g mask="url(#mask23_1_1132)">
<path d="M99.4389 110.822C102.418 110.822 104.833 108.573 104.833 105.799C104.833 103.025 102.418 100.776 99.4389 100.776C96.4597 100.776 94.0446 103.025 94.0446 105.799C94.0446 108.573 96.4597 110.822 99.4389 110.822Z" fill="url(#paint47_linear_1_1132)"/>
</g>
<mask id="mask24_1_1132" style="mask-type:alpha" maskUnits="userSpaceOnUse" x="125" y="100" width="12" height="11">
<path d="M130.681 110.822C133.661 110.822 136.076 108.573 136.076 105.799C136.076 103.025 133.661 100.776 130.681 100.776C127.702 100.776 125.287 103.025 125.287 105.799C125.287 108.573 127.702 110.822 130.681 110.822Z" fill="url(#paint48_linear_1_1132)"/>
</mask>
<g mask="url(#mask24_1_1132)">
<path d="M130.681 110.822C133.661 110.822 136.076 108.573 136.076 105.799C136.076 103.025 133.661 100.776 130.681 100.776C127.702 100.776 125.287 103.025 125.287 105.799C125.287 108.573 127.702 110.822 130.681 110.822Z" fill="url(#paint49_linear_1_1132)"/>
</g>
</g>
<defs>
<linearGradient id="paint0_linear_1_1132" x1="57.0594" y1="126.37" x2="-8.32332" y2="-51.8686" gradientUnits="userSpaceOnUse">
<stop/>
<stop offset="1" stop-color="white"/>
</linearGradient>
<linearGradient id="paint1_linear_1_1132" x1="57.0594" y1="126.37" x2="-8.32332" y2="-51.8686" gradientUnits="userSpaceOnUse">
<stop stop-color="#97C3F9"/>
<stop offset="1" stop-color="#93C1F9"/>
</linearGradient>
<linearGradient id="paint2_linear_1_1132" x1="84.0958" y1="116.453" x2="18.7131" y2="-61.786" gradientUnits="userSpaceOnUse">
<stop/>
<stop offset="1" stop-color="white"/>
</linearGradient>
<linearGradient id="paint3_linear_1_1132" x1="84.0958" y1="116.453" x2="18.7131" y2="-61.786" gradientUnits="userSpaceOnUse">
<stop stop-color="#97C3F9"/>
<stop offset="1" stop-color="#93C1F9"/>
</linearGradient>
<linearGradient id="paint4_linear_1_1132" x1="111.132" y1="106.535" x2="45.7494" y2="-71.7034" gradientUnits="userSpaceOnUse">
<stop/>
<stop offset="1" stop-color="white"/>
</linearGradient>
<linearGradient id="paint5_linear_1_1132" x1="111.132" y1="106.535" x2="45.7494" y2="-71.7034" gradientUnits="userSpaceOnUse">
<stop stop-color="#97C3F9"/>
<stop offset="1" stop-color="#93C1F9"/>
</linearGradient>
<linearGradient id="paint6_linear_1_1132" x1="138.168" y1="96.6171" x2="72.7855" y2="-81.6214" gradientUnits="userSpaceOnUse">
<stop/>
<stop offset="1" stop-color="white"/>
</linearGradient>
<linearGradient id="paint7_linear_1_1132" x1="138.168" y1="96.6171" x2="72.7855" y2="-81.6214" gradientUnits="userSpaceOnUse">
<stop stop-color="#97C3F9"/>
<stop offset="1" stop-color="#93C1F9"/>
</linearGradient>
<linearGradient id="paint8_linear_1_1132" x1="165.204" y1="86.6995" x2="99.8217" y2="-91.539" gradientUnits="userSpaceOnUse">
<stop/>
<stop offset="1" stop-color="white"/>
</linearGradient>
<linearGradient id="paint9_linear_1_1132" x1="165.204" y1="86.6995" x2="99.8217" y2="-91.539" gradientUnits="userSpaceOnUse">
<stop stop-color="#97C3F9"/>
<stop offset="1" stop-color="#93C1F9"/>
</linearGradient>
<linearGradient id="paint10_linear_1_1132" x1="47.8334" y1="129.754" x2="-17.5482" y2="-48.4833" gradientUnits="userSpaceOnUse">
<stop/>
<stop offset="1" stop-color="white"/>
</linearGradient>
<linearGradient id="paint11_linear_1_1132" x1="47.8334" y1="129.754" x2="-17.5482" y2="-48.4833" gradientUnits="userSpaceOnUse">
<stop stop-color="#97C3F9"/>
<stop offset="1" stop-color="#93C1F9"/>
</linearGradient>
<linearGradient id="paint12_linear_1_1132" x1="74.8695" y1="119.836" x2="9.48796" y2="-58.4013" gradientUnits="userSpaceOnUse">
<stop/>
<stop offset="1" stop-color="white"/>
</linearGradient>
<linearGradient id="paint13_linear_1_1132" x1="74.8695" y1="119.836" x2="9.48796" y2="-58.4013" gradientUnits="userSpaceOnUse">
<stop stop-color="#97C3F9"/>
<stop offset="1" stop-color="#93C1F9"/>
</linearGradient>
<linearGradient id="paint14_linear_1_1132" x1="101.906" y1="109.918" x2="36.5242" y2="-68.3187" gradientUnits="userSpaceOnUse">
<stop/>
<stop offset="1" stop-color="white"/>
</linearGradient>
<linearGradient id="paint15_linear_1_1132" x1="101.906" y1="109.918" x2="36.5242" y2="-68.3187" gradientUnits="userSpaceOnUse">
<stop stop-color="#97C3F9"/>
<stop offset="1" stop-color="#93C1F9"/>
</linearGradient>
<linearGradient id="paint16_linear_1_1132" x1="128.942" y1="100.001" x2="63.5603" y2="-78.2363" gradientUnits="userSpaceOnUse">
<stop/>
<stop offset="1" stop-color="white"/>
</linearGradient>
<linearGradient id="paint17_linear_1_1132" x1="128.942" y1="100.001" x2="63.5603" y2="-78.2363" gradientUnits="userSpaceOnUse">
<stop stop-color="#97C3F9"/>
<stop offset="1" stop-color="#93C1F9"/>
</linearGradient>
<linearGradient id="paint18_linear_1_1132" x1="155.978" y1="90.0834" x2="90.5966" y2="-88.1538" gradientUnits="userSpaceOnUse">
<stop/>
<stop offset="1" stop-color="white"/>
</linearGradient>
<linearGradient id="paint19_linear_1_1132" x1="155.978" y1="90.0834" x2="90.5966" y2="-88.1538" gradientUnits="userSpaceOnUse">
<stop stop-color="#97C3F9"/>
<stop offset="1" stop-color="#93C1F9"/>
</linearGradient>
<linearGradient id="paint20_linear_1_1132" x1="38.607" y1="133.139" x2="-26.7757" y2="-45.0996" gradientUnits="userSpaceOnUse">
<stop/>
<stop offset="1" stop-color="white"/>
</linearGradient>
<linearGradient id="paint21_linear_1_1132" x1="38.607" y1="133.139" x2="-26.7757" y2="-45.0996" gradientUnits="userSpaceOnUse">
<stop stop-color="#97C3F9"/>
<stop offset="1" stop-color="#93C1F9"/>
</linearGradient>
<linearGradient id="paint22_linear_1_1132" x1="65.6432" y1="123.221" x2="0.26054" y2="-55.0174" gradientUnits="userSpaceOnUse">
<stop/>
<stop offset="1" stop-color="white"/>
</linearGradient>
<linearGradient id="paint23_linear_1_1132" x1="65.6432" y1="123.221" x2="0.26054" y2="-55.0174" gradientUnits="userSpaceOnUse">
<stop stop-color="#97C3F9"/>
<stop offset="1" stop-color="#93C1F9"/>
</linearGradient>
<linearGradient id="paint24_linear_1_1132" x1="92.6794" y1="113.304" x2="27.2968" y2="-64.9349" gradientUnits="userSpaceOnUse">
<stop/>
<stop offset="1" stop-color="white"/>
</linearGradient>
<linearGradient id="paint25_linear_1_1132" x1="92.6794" y1="113.304" x2="27.2968" y2="-64.9349" gradientUnits="userSpaceOnUse">
<stop stop-color="#97C3F9"/>
<stop offset="1" stop-color="#93C1F9"/>
</linearGradient>
<linearGradient id="paint26_linear_1_1132" x1="119.716" y1="103.386" x2="54.3329" y2="-74.8526" gradientUnits="userSpaceOnUse">
<stop/>
<stop offset="1" stop-color="white"/>
</linearGradient>
<linearGradient id="paint27_linear_1_1132" x1="119.716" y1="103.386" x2="54.3329" y2="-74.8526" gradientUnits="userSpaceOnUse">
<stop stop-color="#97C3F9"/>
<stop offset="1" stop-color="#93C1F9"/>
</linearGradient>
<linearGradient id="paint28_linear_1_1132" x1="146.752" y1="93.4683" x2="81.3692" y2="-84.7703" gradientUnits="userSpaceOnUse">
<stop/>
<stop offset="1" stop-color="white"/>
</linearGradient>
<linearGradient id="paint29_linear_1_1132" x1="146.752" y1="93.4683" x2="81.3692" y2="-84.7703" gradientUnits="userSpaceOnUse">
<stop stop-color="#97C3F9"/>
<stop offset="1" stop-color="#93C1F9"/>
</linearGradient>
<linearGradient id="paint30_linear_1_1132" x1="29.3807" y1="136.523" x2="-36.002" y2="-41.7152" gradientUnits="userSpaceOnUse">
<stop/>
<stop offset="1" stop-color="white"/>
</linearGradient>
<linearGradient id="paint31_linear_1_1132" x1="29.3807" y1="136.523" x2="-36.002" y2="-41.7152" gradientUnits="userSpaceOnUse">
<stop stop-color="#97C3F9"/>
<stop offset="1" stop-color="#93C1F9"/>
</linearGradient>
<linearGradient id="paint32_linear_1_1132" x1="56.417" y1="126.606" x2="-8.96574" y2="-51.6328" gradientUnits="userSpaceOnUse">
<stop/>
<stop offset="1" stop-color="white"/>
</linearGradient>
<linearGradient id="paint33_linear_1_1132" x1="56.417" y1="126.606" x2="-8.96574" y2="-51.6328" gradientUnits="userSpaceOnUse">
<stop stop-color="#97C3F9"/>
<stop offset="1" stop-color="#93C1F9"/>
</linearGradient>
<linearGradient id="paint34_linear_1_1132" x1="83.4531" y1="116.688" x2="18.0705" y2="-61.5504" gradientUnits="userSpaceOnUse">
<stop/>
<stop offset="1" stop-color="white"/>
</linearGradient>
<linearGradient id="paint35_linear_1_1132" x1="83.4531" y1="116.688" x2="18.0705" y2="-61.5504" gradientUnits="userSpaceOnUse">
<stop stop-color="#97C3F9"/>
<stop offset="1" stop-color="#93C1F9"/>
</linearGradient>
<linearGradient id="paint36_linear_1_1132" x1="110.489" y1="106.77" x2="45.1067" y2="-71.4681" gradientUnits="userSpaceOnUse">
<stop/>
<stop offset="1" stop-color="white"/>
</linearGradient>
<linearGradient id="paint37_linear_1_1132" x1="110.489" y1="106.77" x2="45.1067" y2="-71.4681" gradientUnits="userSpaceOnUse">
<stop stop-color="#97C3F9"/>
<stop offset="1" stop-color="#93C1F9"/>
</linearGradient>
<linearGradient id="paint38_linear_1_1132" x1="137.526" y1="96.8527" x2="72.1429" y2="-81.3858" gradientUnits="userSpaceOnUse">
<stop/>
<stop offset="1" stop-color="white"/>
</linearGradient>
<linearGradient id="paint39_linear_1_1132" x1="137.526" y1="96.8527" x2="72.1429" y2="-81.3858" gradientUnits="userSpaceOnUse">
<stop stop-color="#97C3F9"/>
<stop offset="1" stop-color="#93C1F9"/>
</linearGradient>
<linearGradient id="paint40_linear_1_1132" x1="20.1544" y1="139.908" x2="-45.2282" y2="-38.3307" gradientUnits="userSpaceOnUse">
<stop/>
<stop offset="1" stop-color="white"/>
</linearGradient>
<linearGradient id="paint41_linear_1_1132" x1="20.1544" y1="139.908" x2="-45.2282" y2="-38.3307" gradientUnits="userSpaceOnUse">
<stop stop-color="#97C3F9"/>
<stop offset="1" stop-color="#93C1F9"/>
</linearGradient>
<linearGradient id="paint42_linear_1_1132" x1="47.1907" y1="129.99" x2="-18.192" y2="-48.2483" gradientUnits="userSpaceOnUse">
<stop/>
<stop offset="1" stop-color="white"/>
</linearGradient>
<linearGradient id="paint43_linear_1_1132" x1="47.1907" y1="129.99" x2="-18.192" y2="-48.2483" gradientUnits="userSpaceOnUse">
<stop stop-color="#97C3F9"/>
<stop offset="1" stop-color="#93C1F9"/>
</linearGradient>
<linearGradient id="paint44_linear_1_1132" x1="74.2269" y1="120.073" x2="8.8443" y2="-58.1657" gradientUnits="userSpaceOnUse">
<stop/>
<stop offset="1" stop-color="white"/>
</linearGradient>
<linearGradient id="paint45_linear_1_1132" x1="74.2269" y1="120.073" x2="8.8443" y2="-58.1657" gradientUnits="userSpaceOnUse">
<stop stop-color="#97C3F9"/>
<stop offset="1" stop-color="#93C1F9"/>
</linearGradient>
<linearGradient id="paint46_linear_1_1132" x1="101.263" y1="110.155" x2="35.8805" y2="-68.0835" gradientUnits="userSpaceOnUse">
<stop/>
<stop offset="1" stop-color="white"/>
</linearGradient>
<linearGradient id="paint47_linear_1_1132" x1="101.263" y1="110.155" x2="35.8805" y2="-68.0835" gradientUnits="userSpaceOnUse">
<stop stop-color="#97C3F9"/>
<stop offset="1" stop-color="#93C1F9"/>
</linearGradient>
<linearGradient id="paint48_linear_1_1132" x1="128.299" y1="100.237" x2="62.9167" y2="-78.0011" gradientUnits="userSpaceOnUse">
<stop/>
<stop offset="1" stop-color="white"/>
</linearGradient>
<linearGradient id="paint49_linear_1_1132" x1="128.299" y1="100.237" x2="62.9167" y2="-78.0011" gradientUnits="userSpaceOnUse">
<stop stop-color="#97C3F9"/>
<stop offset="1" stop-color="#93C1F9"/>
</linearGradient>
</defs>
</svg>
