<svg width="68" height="95" viewBox="0 0 68 95" fill="none" xmlns="http://www.w3.org/2000/svg">
<g clip-path="url(#clip0_1_203)">
<path d="M67.0754 90.4482C67.0754 92.9272 65.069 94.942 62.5899 94.942L4.58501 95.0083C2.61171 95.0083 0.9369 93.7398 0.331646 91.9737C0.174114 91.5177 0.0912027 91.0368 0.0912027 90.5311L0 6.88167C0 4.40261 2.00646 2.38786 4.48551 2.38786L57.7479 2.32982L62.4904 2.32153C64.9695 2.32153 66.9842 4.32799 66.9842 6.80705L67.0754 90.4482Z" fill="url(#paint0_linear_1_203)"/>
<path d="M61.0644 89.9673L6.10233 90.0253C4.76745 90.0253 3.6896 88.9474 3.6896 87.6126L3.60669 9.76697C3.60669 8.43209 4.68454 7.35424 6.01941 7.35424L60.9732 7.2962C62.308 7.2962 63.3859 8.37405 63.3859 9.70893L63.4688 87.5545C63.4771 88.8811 62.3992 89.9673 61.0644 89.9673Z" fill="white"/>
<path d="M53.3453 13.7135L13.2576 13.7633C11.931 13.7633 10.8448 12.6854 10.8448 11.3589L10.8365 4.6762C10.8365 3.34961 11.9144 2.26347 13.241 2.26347L53.337 2.22202C54.6636 2.22202 55.7497 3.29986 55.7497 4.62645L55.758 11.3091C55.7497 12.6357 54.6719 13.7135 53.3453 13.7135ZM13.241 3.49056C12.5943 3.49056 12.0636 4.02119 12.0636 4.6679L12.0719 11.3506C12.0719 11.9973 12.6026 12.5279 13.2493 12.5279L53.3453 12.4865C53.992 12.4865 54.5226 11.9558 54.5226 11.3091L54.5143 4.62645C54.5143 3.97974 53.9837 3.44911 53.337 3.44911L13.241 3.49056Z" fill="url(#paint1_linear_1_203)"/>
<path d="M52.2093 5.11564L14.7748 5.1571C14.3602 5.1571 14.0286 4.82545 14.0286 4.41089V0.787659C14.0286 0.373102 14.3602 0.0414557 14.7748 0.0414557L52.201 0C52.6156 0 52.9472 0.331646 52.9472 0.746203V4.36944C52.9555 4.78399 52.6239 5.11564 52.2093 5.11564Z" fill="url(#paint2_linear_1_203)"/>
<path d="M14.808 5.15708L52.1763 5.11562C52.6074 5.11562 52.9556 4.7674 52.9556 4.33626V2.56195L14.0204 2.60341V4.37771C14.0204 4.80885 14.3769 5.15708 14.808 5.15708Z" fill="#58D6F4"/>
<path d="M27.9412 81.2118L24.7076 61.6447L22.0876 70.1597L14.5924 70.168C14.1364 70.168 13.7716 69.8032 13.7716 69.3472C13.7716 68.8912 14.1364 68.5264 14.5924 68.5264L20.8854 68.5181L25.2051 54.4977L28.4387 74.1146L32.634 60.6415L34.8643 67.0257L39.8887 54.846L44.7722 74.1643L46.6129 68.0206L52.0021 68.0123C52.4581 68.0123 52.8229 68.3771 52.8229 68.8331C52.8229 69.2892 52.4581 69.654 52.0021 69.654L47.8317 69.6623L44.6396 80.3164L39.5156 60.0528L34.7316 71.6355L32.7169 65.8732L27.9412 81.2118Z" fill="#58D6F4"/>
<path d="M22.3861 43.4871L11.8481 43.4954C10.1484 43.4954 8.75547 42.1108 8.75547 40.4111L8.73889 25.6777C8.73889 23.978 10.1235 22.5851 11.8232 22.5851L22.3613 22.5768C24.0609 22.5768 25.4539 23.9614 25.4539 25.6611L25.4704 40.3945C25.4704 42.0942 24.0858 43.4788 22.3861 43.4871ZM11.8149 23.4806C10.6044 23.4806 9.62604 24.4672 9.62604 25.6777L9.64263 40.4111C9.64263 41.6216 10.6293 42.5999 11.8398 42.5999L22.3778 42.5917C23.5883 42.5917 24.5667 41.605 24.5667 40.3945L24.5501 25.6611C24.5501 24.4506 23.5635 23.4723 22.353 23.4723L11.8149 23.4806Z" fill="url(#paint3_linear_1_203)"/>
<path d="M17.1046 40.6598C22.0876 40.6515 23.6381 37.7745 23.6381 37.7745C23.4142 37.4926 23.1323 37.2439 22.7509 36.9951C21.4409 36.1411 20.3879 35.7763 19.9485 35.4115C19.5008 35.055 19.252 34.5327 19.252 34.5327L18.9784 34.6985C18.9784 34.6985 18.8126 34.1264 18.9038 33.2558C18.9038 33.2558 19.2935 33.1563 19.5837 31.838C20.048 31.9292 20.5952 30.7519 20.3382 30.3207C20.1724 30.0388 19.9734 30.0637 19.8324 30.1301C19.9734 29.5414 20.6118 26.283 17.0963 26.283C13.5809 26.283 14.2193 29.5414 14.3686 30.1301C14.2276 30.0637 14.0286 30.0388 13.8628 30.3207C13.6058 30.7519 14.1613 31.9292 14.6256 31.838C14.9158 33.1563 15.3137 33.2475 15.3137 33.2475C15.4132 34.1098 15.2391 34.6902 15.2391 34.6902L14.9655 34.5244C14.9655 34.5244 14.7168 35.0384 14.2691 35.4032C13.8213 35.768 12.7767 36.1411 11.4667 36.9951C11.0853 37.2439 10.7951 37.4926 10.5795 37.7745C10.5712 37.7911 12.1299 40.6681 17.1046 40.6598Z" fill="url(#paint4_linear_1_203)"/>
<path d="M49.9211 27.2779L29.6326 27.3028C29.2512 27.3028 28.9445 26.996 28.9445 26.6146V26.4985C28.9445 26.1171 29.2512 25.8104 29.6326 25.8104L49.9211 25.7855C50.3025 25.7855 50.6092 26.0923 50.6092 26.4737V26.5897C50.6092 26.9711 50.2942 27.2779 49.9211 27.2779Z" fill="url(#paint5_linear_1_203)"/>
<path d="M42.459 31.1416L29.6326 31.1582C29.2512 31.1582 28.9445 30.8514 28.9445 30.47V30.3539C28.9445 29.9725 29.2512 29.6657 29.6326 29.6657L42.459 29.6491C42.8404 29.6491 43.1472 29.9559 43.1472 30.3373V30.4534C43.1472 30.8348 42.8404 31.1416 42.459 31.1416Z" fill="url(#paint6_linear_1_203)"/>
<path opacity="0.6" d="M56.9188 35.7349L29.6409 35.768C29.2595 35.768 28.9528 35.4613 28.9528 35.0799V34.9638C28.9528 34.5824 29.2595 34.2756 29.6409 34.2756L56.9188 34.2425C57.3002 34.2425 57.607 34.5492 57.607 34.9306V35.0467C57.5987 35.4281 57.2919 35.7349 56.9188 35.7349Z" fill="url(#paint7_linear_1_203)"/>
<path opacity="0.6" d="M56.3301 48.6442L10.8283 48.6939C10.4386 48.6939 10.1152 48.3789 10.1152 47.9809V47.9146C10.1152 47.5249 10.4303 47.2015 10.8283 47.2015L56.3301 47.1518C56.7198 47.1518 57.0431 47.4668 57.0431 47.8648V47.9311C57.0431 48.3291 56.7198 48.6442 56.3301 48.6442Z" fill="url(#paint8_linear_1_203)"/>
<path opacity="0.6" d="M56.9188 40.2452L29.6409 40.2784C29.2595 40.2784 28.9528 39.9716 28.9528 39.5902V39.4742C28.9528 39.0928 29.2595 38.786 29.6409 38.786L56.9188 38.7528C57.3002 38.7528 57.607 39.0596 57.607 39.441V39.5571C57.607 39.9385 57.3002 40.2452 56.9188 40.2452Z" fill="url(#paint9_linear_1_203)"/>
</g>
<defs>
<linearGradient id="paint0_linear_1_203" x1="-9.28868" y1="34.748" x2="76.3641" y2="62.5782" gradientUnits="userSpaceOnUse">
<stop stop-color="#6CBCFC"/>
<stop offset="0.1713" stop-color="#5EABFC"/>
<stop offset="0.4084" stop-color="#509AFC"/>
<stop offset="0.6698" stop-color="#4890FC"/>
<stop offset="1" stop-color="#458DFC"/>
</linearGradient>
<linearGradient id="paint1_linear_1_203" x1="-5.22497" y1="-21.375" x2="55.7515" y2="7.9897" gradientUnits="userSpaceOnUse">
<stop stop-color="#CFE9FF"/>
<stop offset="1" stop-color="#A1D6FB"/>
</linearGradient>
<linearGradient id="paint2_linear_1_203" x1="14.0191" y1="2.57952" x2="52.9549" y2="2.57952" gradientUnits="userSpaceOnUse">
<stop stop-color="#B0F4FF"/>
<stop offset="1" stop-color="#69DCFC"/>
</linearGradient>
<linearGradient id="paint3_linear_1_203" x1="14.135" y1="29.2076" x2="23.9156" y2="41.8335" gradientUnits="userSpaceOnUse">
<stop stop-color="#6CBCFC"/>
<stop offset="1" stop-color="#458DFC"/>
</linearGradient>
<linearGradient id="paint4_linear_1_203" x1="13.0741" y1="30.0293" x2="22.8548" y2="42.6553" gradientUnits="userSpaceOnUse">
<stop stop-color="#B0F4FF"/>
<stop offset="0.0994384" stop-color="#A1EFFE"/>
<stop offset="0.2994" stop-color="#88E7FD"/>
<stop offset="0.5095" stop-color="#77E1FD"/>
<stop offset="0.7344" stop-color="#6CDDFC"/>
<stop offset="1" stop-color="#69DCFC"/>
</linearGradient>
<linearGradient id="paint5_linear_1_203" x1="28.9456" y1="26.5509" x2="50.6049" y2="26.5639" gradientUnits="userSpaceOnUse">
<stop stop-color="#6CBCFC"/>
<stop offset="1" stop-color="#458DFC"/>
</linearGradient>
<linearGradient id="paint6_linear_1_203" x1="28.9496" y1="30.4037" x2="43.1463" y2="30.4037" gradientUnits="userSpaceOnUse">
<stop stop-color="#6CBCFC"/>
<stop offset="1" stop-color="#458DFC"/>
</linearGradient>
<linearGradient id="paint7_linear_1_203" x1="28.9543" y1="35.0098" x2="57.6023" y2="35.0098" gradientUnits="userSpaceOnUse">
<stop stop-color="#6CBCFC"/>
<stop offset="1" stop-color="#458DFC"/>
</linearGradient>
<linearGradient id="paint8_linear_1_203" x1="10.1148" y1="47.9272" x2="57.0408" y2="47.9272" gradientUnits="userSpaceOnUse">
<stop stop-color="#6888C8"/>
<stop offset="1" stop-color="#458DFC"/>
</linearGradient>
<linearGradient id="paint9_linear_1_203" x1="28.9589" y1="39.5191" x2="57.6069" y2="39.5191" gradientUnits="userSpaceOnUse">
<stop stop-color="#6CBCFC"/>
<stop offset="1" stop-color="#458DFC"/>
</linearGradient>
<clipPath id="clip0_1_203">
<rect width="67.0754" height="95" fill="white"/>
</clipPath>
</defs>
</svg>
