<svg width="80" height="72" viewBox="0 0 80 72" fill="none" xmlns="http://www.w3.org/2000/svg">
<g clip-path="url(#clip0_1_230)">
<path d="M66.4755 14.0108H13.2584V71.1274H66.4755V14.0108Z" fill="url(#paint0_linear_1_230)"/>
<path d="M13.0382 14.0108C13.1024 14.0108 13.1666 14.0383 13.2584 14.0658C13.2584 33.068 13.2584 52.0702 13.2584 71.0999C9.13862 71.421 5.66116 70.3842 2.89937 67.7234C0.945022 65.8332 -4.09453e-05 63.6128 -4.09453e-05 61.0987C-4.09453e-05 52.1986 -4.09453e-05 43.3077 -4.09453e-05 34.4076C-4.09453e-05 31.0127 -0.00921631 27.6178 -0.00921631 24.223C-0.00921631 20.1216 2.20205 17.1396 6.26673 15.121C8.35871 14.0934 10.6801 13.9374 13.0382 14.0108Z" fill="url(#paint1_linear_1_230)"/>
<path d="M57.1808 14.0016C59.5573 14.0016 59.7958 14.0016 62.1631 14.0016C62.1631 33.068 62.1631 52.0702 62.1631 71.1091C46.0053 71.1091 33.7837 71.1091 17.5708 71.1091C17.5708 52.0794 17.5708 33.0772 17.5708 14.02C19.938 14.02 20.4519 14.02 22.865 14.02C22.865 13.7814 22.865 13.5979 22.865 13.4236C22.865 11.3775 22.8742 9.32218 22.8558 7.27607C22.8375 5.84472 23.2228 4.59687 24.3422 3.62428C25.1313 2.9453 26.0397 2.59664 27.0673 2.59664C30.2512 2.58746 33.4258 2.58746 36.6097 2.58746C41.9589 2.58746 47.3173 2.59664 52.6666 2.58746C54.0704 2.58746 55.2357 3.04623 56.1532 4.11057C56.8872 4.96388 57.1625 5.964 57.1625 7.08339C57.1533 9.2396 57.1625 11.3958 57.1625 13.552C57.1533 13.6713 57.1625 13.8089 57.1808 14.0016ZM28.6088 14.0016C28.829 14.0016 28.9941 14.0016 29.1593 14.0016C31.6917 14.0016 34.2333 14.0016 36.7657 14.0016C41.5002 14.0016 46.2438 14.0016 50.9783 14.0108C51.3545 14.0108 51.4371 13.8915 51.4371 13.5337C51.4187 11.928 51.4371 10.3223 51.4371 8.71661C51.4371 8.58815 51.4187 8.45969 51.4004 8.32206C43.7848 8.32206 36.2151 8.32206 28.6088 8.32206C28.6088 10.2122 28.6088 12.0656 28.6088 14.0016Z" fill="white"/>
<mask id="mask0_1_230" style="mask-type:alpha" maskUnits="userSpaceOnUse" x="17" y="2" width="46" height="70">
<path d="M57.1808 14.0016C59.5573 14.0016 59.7958 14.0016 62.1631 14.0016C62.1631 33.068 62.1631 52.0702 62.1631 71.1091C46.0053 71.1091 33.7837 71.1091 17.5708 71.1091C17.5708 52.0794 17.5708 33.0772 17.5708 14.02C19.938 14.02 20.4519 14.02 22.865 14.02C22.865 13.7814 22.865 13.5979 22.865 13.4236C22.865 11.3775 22.8742 9.32218 22.8558 7.27607C22.8375 5.84472 23.2228 4.59687 24.3422 3.62428C25.1313 2.9453 26.0397 2.59664 27.0673 2.59664C30.2512 2.58746 33.4258 2.58746 36.6097 2.58746C41.9589 2.58746 47.3173 2.59664 52.6666 2.58746C54.0704 2.58746 55.2357 3.04623 56.1532 4.11057C56.8872 4.96388 57.1625 5.964 57.1625 7.08339C57.1533 9.2396 57.1625 11.3958 57.1625 13.552C57.1533 13.6713 57.1625 13.8089 57.1808 14.0016ZM28.6088 14.0016C28.829 14.0016 28.9941 14.0016 29.1593 14.0016C31.6917 14.0016 34.2333 14.0016 36.7657 14.0016C41.5002 14.0016 46.2438 14.0016 50.9783 14.0108C51.3545 14.0108 51.4371 13.8915 51.4371 13.5337C51.4187 11.928 51.4371 10.3223 51.4371 8.71661C51.4371 8.58815 51.4187 8.45969 51.4004 8.32206C43.7848 8.32206 36.2151 8.32206 28.6088 8.32206C28.6088 10.2122 28.6088 12.0656 28.6088 14.0016Z" fill="#F7F9FC"/>
</mask>
<g mask="url(#mask0_1_230)">
<path d="M58.096 0H21V14.02H58.096V0Z" fill="url(#paint2_linear_1_230)"/>
</g>
<path d="M80 24.0762C80 20.2959 77.9355 17.4791 74.2654 15.433C72.0082 14.1759 69.4483 13.9374 66.8241 13.9924C66.4204 14.0016 66.4755 14.2126 66.4755 14.4328C66.4755 21.0391 66.4755 27.6362 66.4755 34.2425C66.4755 45.8493 66.4755 57.447 66.4663 69.0538C66.4663 69.7236 66.4663 70.3934 66.4663 71.1183C68.1179 71.1733 69.6869 71.1825 71.2283 70.8155C76.4399 69.586 79.9908 65.7048 79.9908 61.1263C80.0092 48.7854 80 36.4262 80 24.0762Z" fill="url(#paint3_linear_1_230)"/>
<path d="M44.2161 46.7852C44.2161 47.9688 44.2161 49.0882 44.2161 50.2168C44.2161 51.4921 44.2161 52.7675 44.2161 54.0337C44.2161 54.7953 43.8307 55.199 43.0784 55.199C41.0047 55.2082 38.9311 55.2082 36.8575 55.199C36.1693 55.199 35.7839 54.7677 35.7839 54.0429C35.7839 51.7674 35.7839 49.4919 35.7839 47.2164C35.7839 47.088 35.7839 46.9503 35.7839 46.7852C35.6096 46.7852 35.4812 46.7852 35.3435 46.7852C33.1047 46.7852 30.8568 46.7852 28.618 46.7852C27.728 46.7852 27.361 46.4273 27.361 45.5373C27.361 43.5646 27.361 41.5919 27.361 39.6192C27.361 38.72 27.7188 38.3622 28.6088 38.3622C30.8384 38.3622 33.068 38.3622 35.2977 38.3622C35.4445 38.3622 35.5821 38.3622 35.7748 38.3622C35.7748 38.2154 35.7748 38.0961 35.7748 37.9768C35.7748 35.7013 35.7748 33.4258 35.7748 31.1504C35.7748 30.3062 36.151 29.9392 36.9951 29.9392C38.9678 29.9392 40.9405 29.9392 42.9132 29.9392C43.8399 29.9392 44.1978 30.2879 44.1978 31.2329C44.2069 33.4901 44.1978 35.738 44.1978 37.9952C44.1978 38.1053 44.1978 38.2154 44.1978 38.3714C44.3446 38.3714 44.473 38.3714 44.5923 38.3714C46.8678 38.3714 49.1433 38.3714 51.4188 38.3805C52.2537 38.3805 52.6116 38.7476 52.6116 39.5825C52.6116 41.5644 52.6116 43.5463 52.6116 45.5282C52.6116 46.4365 52.2629 46.7852 51.3729 46.7852C49.1066 46.7852 46.8403 46.7852 44.5831 46.7944C44.4914 46.7852 44.3813 46.7852 44.2161 46.7852Z" fill="url(#paint4_linear_1_230)"/>
</g>
<defs>
<linearGradient id="paint0_linear_1_230" x1="13.2598" y1="42.5657" x2="66.473" y2="42.5657" gradientUnits="userSpaceOnUse">
<stop stop-color="#B0F4FF"/>
<stop offset="1" stop-color="#69DCFC"/>
</linearGradient>
<linearGradient id="paint1_linear_1_230" x1="-4.09446e-05" y1="42.5747" x2="13.2597" y2="42.5747" gradientUnits="userSpaceOnUse">
<stop stop-color="#6CBCFC"/>
<stop offset="1" stop-color="#458DFC"/>
</linearGradient>
<linearGradient id="paint2_linear_1_230" x1="20.9962" y1="7.00849" x2="58.0944" y2="7.00849" gradientUnits="userSpaceOnUse">
<stop stop-color="#6CBCFC"/>
<stop offset="1" stop-color="#458DFC"/>
</linearGradient>
<linearGradient id="paint3_linear_1_230" x1="66.4686" y1="42.569" x2="80.0007" y2="42.569" gradientUnits="userSpaceOnUse">
<stop stop-color="#6CBCFC"/>
<stop offset="1" stop-color="#458DFC"/>
</linearGradient>
<linearGradient id="paint4_linear_1_230" x1="27.3666" y1="42.5783" x2="52.6299" y2="42.5783" gradientUnits="userSpaceOnUse">
<stop stop-color="#6888C8"/>
<stop offset="1" stop-color="#458DFC"/>
</linearGradient>
<clipPath id="clip0_1_230">
<rect width="80" height="71.1549" fill="white"/>
</clipPath>
</defs>
</svg>
