<svg width="139" height="132" viewBox="0 0 139 132" fill="none" xmlns="http://www.w3.org/2000/svg">
<g opacity="0.26">
<mask id="mask0_1_1528" style="mask-type:alpha" maskUnits="userSpaceOnUse" x="0" y="0" width="12" height="12">
<path d="M5.86967 11.9617C8.91212 11.9617 11.3785 9.28394 11.3785 5.98081C11.3785 2.67769 8.91212 0 5.86967 0C2.82722 0 0.36084 2.67769 0.36084 5.98081C0.36084 9.28394 2.82722 11.9617 5.86967 11.9617Z" fill="url(#paint0_linear_1_1528)"/>
</mask>
<g mask="url(#mask0_1_1528)">
<path d="M5.86967 11.9617C8.91212 11.9617 11.3785 9.28394 11.3785 5.98081C11.3785 2.67769 8.91212 0 5.86967 0C2.82722 0 0.36084 2.67769 0.36084 5.98081C0.36084 9.28394 2.82722 11.9617 5.86967 11.9617Z" fill="url(#paint1_linear_1_1528)"/>
</g>
<mask id="mask1_1_1528" style="mask-type:alpha" maskUnits="userSpaceOnUse" x="32" y="0" width="12" height="12">
<path d="M37.775 11.9617C40.8175 11.9617 43.2839 9.28394 43.2839 5.98081C43.2839 2.67769 40.8175 0 37.775 0C34.7326 0 32.2662 2.67769 32.2662 5.98081C32.2662 9.28394 34.7326 11.9617 37.775 11.9617Z" fill="url(#paint2_linear_1_1528)"/>
</mask>
<g mask="url(#mask1_1_1528)">
<path d="M37.775 11.9617C40.8175 11.9617 43.2839 9.28394 43.2839 5.98081C43.2839 2.67769 40.8175 0 37.775 0C34.7326 0 32.2662 2.67769 32.2662 5.98081C32.2662 9.28394 34.7326 11.9617 37.775 11.9617Z" fill="url(#paint3_linear_1_1528)"/>
</g>
<mask id="mask2_1_1528" style="mask-type:alpha" maskUnits="userSpaceOnUse" x="64" y="0" width="12" height="12">
<path d="M69.6804 11.9617C72.7229 11.9617 75.1893 9.28394 75.1893 5.98081C75.1893 2.67769 72.7229 0 69.6804 0C66.638 0 64.1716 2.67769 64.1716 5.98081C64.1716 9.28394 66.638 11.9617 69.6804 11.9617Z" fill="url(#paint4_linear_1_1528)"/>
</mask>
<g mask="url(#mask2_1_1528)">
<path d="M69.6804 11.9617C72.7229 11.9617 75.1893 9.28394 75.1893 5.98081C75.1893 2.67769 72.7229 0 69.6804 0C66.638 0 64.1716 2.67769 64.1716 5.98081C64.1716 9.28394 66.638 11.9617 69.6804 11.9617Z" fill="url(#paint5_linear_1_1528)"/>
</g>
<mask id="mask3_1_1528" style="mask-type:alpha" maskUnits="userSpaceOnUse" x="96" y="0" width="12" height="12">
<path d="M101.586 11.9617C104.628 11.9617 107.095 9.28394 107.095 5.98081C107.095 2.67769 104.628 0 101.586 0C98.5433 0 96.077 2.67769 96.077 5.98081C96.077 9.28394 98.5433 11.9617 101.586 11.9617Z" fill="url(#paint6_linear_1_1528)"/>
</mask>
<g mask="url(#mask3_1_1528)">
<path d="M101.586 11.9617C104.628 11.9617 107.095 9.28394 107.095 5.98081C107.095 2.67769 104.628 0 101.586 0C98.5433 0 96.077 2.67769 96.077 5.98081C96.077 9.28394 98.5433 11.9617 101.586 11.9617Z" fill="url(#paint7_linear_1_1528)"/>
</g>
<mask id="mask4_1_1528" style="mask-type:alpha" maskUnits="userSpaceOnUse" x="127" y="0" width="12" height="12">
<path d="M133.491 11.9617C136.534 11.9617 139 9.28394 139 5.98081C139 2.67769 136.534 0 133.491 0C130.449 0 127.982 2.67769 127.982 5.98081C127.982 9.28394 130.449 11.9617 133.491 11.9617Z" fill="url(#paint8_linear_1_1528)"/>
</mask>
<g mask="url(#mask4_1_1528)">
<path d="M133.491 11.9617C136.534 11.9617 139 9.28394 139 5.98081C139 2.67769 136.534 0 133.491 0C130.449 0 127.982 2.67769 127.982 5.98081C127.982 9.28394 130.449 11.9617 133.491 11.9617Z" fill="url(#paint9_linear_1_1528)"/>
</g>
<mask id="mask5_1_1528" style="mask-type:alpha" maskUnits="userSpaceOnUse" x="0" y="30" width="12" height="12">
<path d="M5.86967 41.9904C8.91212 41.9904 11.3785 39.3127 11.3785 36.0096C11.3785 32.7065 8.91212 30.0288 5.86967 30.0288C2.82722 30.0288 0.36084 32.7065 0.36084 36.0096C0.36084 39.3127 2.82722 41.9904 5.86967 41.9904Z" fill="url(#paint10_linear_1_1528)"/>
</mask>
<g mask="url(#mask5_1_1528)">
<path d="M5.86967 41.9904C8.91212 41.9904 11.3785 39.3127 11.3785 36.0096C11.3785 32.7065 8.91212 30.0288 5.86967 30.0288C2.82722 30.0288 0.36084 32.7065 0.36084 36.0096C0.36084 39.3127 2.82722 41.9904 5.86967 41.9904Z" fill="url(#paint11_linear_1_1528)"/>
</g>
<mask id="mask6_1_1528" style="mask-type:alpha" maskUnits="userSpaceOnUse" x="32" y="30" width="12" height="12">
<path d="M37.775 41.9904C40.8175 41.9904 43.2839 39.3127 43.2839 36.0096C43.2839 32.7065 40.8175 30.0288 37.775 30.0288C34.7326 30.0288 32.2662 32.7065 32.2662 36.0096C32.2662 39.3127 34.7326 41.9904 37.775 41.9904Z" fill="url(#paint12_linear_1_1528)"/>
</mask>
<g mask="url(#mask6_1_1528)">
<path d="M37.775 41.9904C40.8175 41.9904 43.2839 39.3127 43.2839 36.0096C43.2839 32.7065 40.8175 30.0288 37.775 30.0288C34.7326 30.0288 32.2662 32.7065 32.2662 36.0096C32.2662 39.3127 34.7326 41.9904 37.775 41.9904Z" fill="url(#paint13_linear_1_1528)"/>
</g>
<mask id="mask7_1_1528" style="mask-type:alpha" maskUnits="userSpaceOnUse" x="64" y="30" width="12" height="12">
<path d="M69.6804 41.9904C72.7229 41.9904 75.1893 39.3127 75.1893 36.0096C75.1893 32.7065 72.7229 30.0288 69.6804 30.0288C66.638 30.0288 64.1716 32.7065 64.1716 36.0096C64.1716 39.3127 66.638 41.9904 69.6804 41.9904Z" fill="url(#paint14_linear_1_1528)"/>
</mask>
<g mask="url(#mask7_1_1528)">
<path d="M69.6804 41.9904C72.7229 41.9904 75.1893 39.3127 75.1893 36.0096C75.1893 32.7065 72.7229 30.0288 69.6804 30.0288C66.638 30.0288 64.1716 32.7065 64.1716 36.0096C64.1716 39.3127 66.638 41.9904 69.6804 41.9904Z" fill="url(#paint15_linear_1_1528)"/>
</g>
<mask id="mask8_1_1528" style="mask-type:alpha" maskUnits="userSpaceOnUse" x="96" y="30" width="12" height="12">
<path d="M101.586 41.9904C104.628 41.9904 107.095 39.3127 107.095 36.0096C107.095 32.7065 104.628 30.0288 101.586 30.0288C98.5433 30.0288 96.077 32.7065 96.077 36.0096C96.077 39.3127 98.5433 41.9904 101.586 41.9904Z" fill="url(#paint16_linear_1_1528)"/>
</mask>
<g mask="url(#mask8_1_1528)">
<path d="M101.586 41.9904C104.628 41.9904 107.095 39.3127 107.095 36.0096C107.095 32.7065 104.628 30.0288 101.586 30.0288C98.5433 30.0288 96.077 32.7065 96.077 36.0096C96.077 39.3127 98.5433 41.9904 101.586 41.9904Z" fill="url(#paint17_linear_1_1528)"/>
</g>
<mask id="mask9_1_1528" style="mask-type:alpha" maskUnits="userSpaceOnUse" x="127" y="30" width="12" height="12">
<path d="M133.491 41.9904C136.534 41.9904 139 39.3127 139 36.0096C139 32.7065 136.534 30.0288 133.491 30.0288C130.449 30.0288 127.982 32.7065 127.982 36.0096C127.982 39.3127 130.449 41.9904 133.491 41.9904Z" fill="url(#paint18_linear_1_1528)"/>
</mask>
<g mask="url(#mask9_1_1528)">
<path d="M133.491 41.9904C136.534 41.9904 139 39.3127 139 36.0096C139 32.7065 136.534 30.0288 133.491 30.0288C130.449 30.0288 127.982 32.7065 127.982 36.0096C127.982 39.3127 130.449 41.9904 133.491 41.9904Z" fill="url(#paint19_linear_1_1528)"/>
</g>
<mask id="mask10_1_1528" style="mask-type:alpha" maskUnits="userSpaceOnUse" x="0" y="59" width="12" height="13">
<path d="M5.86967 71.9571C8.91212 71.9571 11.3785 69.2794 11.3785 65.9762C11.3785 62.6731 8.91212 59.9954 5.86967 59.9954C2.82722 59.9954 0.36084 62.6731 0.36084 65.9762C0.36084 69.2794 2.82722 71.9571 5.86967 71.9571Z" fill="url(#paint20_linear_1_1528)"/>
</mask>
<g mask="url(#mask10_1_1528)">
<path d="M5.86967 71.9571C8.91212 71.9571 11.3785 69.2794 11.3785 65.9762C11.3785 62.6731 8.91212 59.9954 5.86967 59.9954C2.82722 59.9954 0.36084 62.6731 0.36084 65.9762C0.36084 69.2794 2.82722 71.9571 5.86967 71.9571Z" fill="url(#paint21_linear_1_1528)"/>
</g>
<mask id="mask11_1_1528" style="mask-type:alpha" maskUnits="userSpaceOnUse" x="32" y="59" width="12" height="13">
<path d="M37.775 71.9568C40.8175 71.9568 43.2839 69.2791 43.2839 65.976C43.2839 62.6728 40.8175 59.9951 37.775 59.9951C34.7326 59.9951 32.2662 62.6728 32.2662 65.976C32.2662 69.2791 34.7326 71.9568 37.775 71.9568Z" fill="url(#paint22_linear_1_1528)"/>
</mask>
<g mask="url(#mask11_1_1528)">
<path d="M37.775 71.9568C40.8175 71.9568 43.2839 69.2791 43.2839 65.976C43.2839 62.6728 40.8175 59.9951 37.775 59.9951C34.7326 59.9951 32.2662 62.6728 32.2662 65.976C32.2662 69.2791 34.7326 71.9568 37.775 71.9568Z" fill="url(#paint23_linear_1_1528)"/>
</g>
<mask id="mask12_1_1528" style="mask-type:alpha" maskUnits="userSpaceOnUse" x="64" y="59" width="12" height="13">
<path d="M69.6804 71.9568C72.7229 71.9568 75.1893 69.2791 75.1893 65.976C75.1893 62.6728 72.7229 59.9951 69.6804 59.9951C66.638 59.9951 64.1716 62.6728 64.1716 65.976C64.1716 69.2791 66.638 71.9568 69.6804 71.9568Z" fill="url(#paint24_linear_1_1528)"/>
</mask>
<g mask="url(#mask12_1_1528)">
<path d="M69.6804 71.9568C72.7229 71.9568 75.1893 69.2791 75.1893 65.976C75.1893 62.6728 72.7229 59.9951 69.6804 59.9951C66.638 59.9951 64.1716 62.6728 64.1716 65.976C64.1716 69.2791 66.638 71.9568 69.6804 71.9568Z" fill="url(#paint25_linear_1_1528)"/>
</g>
<mask id="mask13_1_1528" style="mask-type:alpha" maskUnits="userSpaceOnUse" x="96" y="59" width="12" height="13">
<path d="M101.586 71.9568C104.628 71.9568 107.095 69.2791 107.095 65.976C107.095 62.6728 104.628 59.9951 101.586 59.9951C98.5433 59.9951 96.077 62.6728 96.077 65.976C96.077 69.2791 98.5433 71.9568 101.586 71.9568Z" fill="url(#paint26_linear_1_1528)"/>
</mask>
<g mask="url(#mask13_1_1528)">
<path d="M101.586 71.9568C104.628 71.9568 107.095 69.2791 107.095 65.976C107.095 62.6728 104.628 59.9951 101.586 59.9951C98.5433 59.9951 96.077 62.6728 96.077 65.976C96.077 69.2791 98.5433 71.9568 101.586 71.9568Z" fill="url(#paint27_linear_1_1528)"/>
</g>
<mask id="mask14_1_1528" style="mask-type:alpha" maskUnits="userSpaceOnUse" x="127" y="59" width="12" height="13">
<path d="M133.491 71.9568C136.534 71.9568 139 69.2791 139 65.976C139 62.6728 136.534 59.9951 133.491 59.9951C130.449 59.9951 127.982 62.6728 127.982 65.976C127.982 69.2791 130.449 71.9568 133.491 71.9568Z" fill="url(#paint28_linear_1_1528)"/>
</mask>
<g mask="url(#mask14_1_1528)">
<path d="M133.491 71.9568C136.534 71.9568 139 69.2791 139 65.976C139 62.6728 136.534 59.9951 133.491 59.9951C130.449 59.9951 127.982 62.6728 127.982 65.976C127.982 69.2791 130.449 71.9568 133.491 71.9568Z" fill="url(#paint29_linear_1_1528)"/>
</g>
<mask id="mask15_1_1528" style="mask-type:alpha" maskUnits="userSpaceOnUse" x="0" y="90" width="12" height="12">
<path d="M5.86967 101.986C8.91212 101.986 11.3785 99.3081 11.3785 96.005C11.3785 92.7019 8.91212 90.0242 5.86967 90.0242C2.82722 90.0242 0.36084 92.7019 0.36084 96.005C0.36084 99.3081 2.82722 101.986 5.86967 101.986Z" fill="url(#paint30_linear_1_1528)"/>
</mask>
<g mask="url(#mask15_1_1528)">
<path d="M5.86967 101.986C8.91212 101.986 11.3785 99.3081 11.3785 96.005C11.3785 92.7019 8.91212 90.0242 5.86967 90.0242C2.82722 90.0242 0.36084 92.7019 0.36084 96.005C0.36084 99.3081 2.82722 101.986 5.86967 101.986Z" fill="url(#paint31_linear_1_1528)"/>
</g>
<mask id="mask16_1_1528" style="mask-type:alpha" maskUnits="userSpaceOnUse" x="32" y="90" width="12" height="12">
<path d="M37.775 101.986C40.8175 101.986 43.2839 99.3079 43.2839 96.0047C43.2839 92.7016 40.8175 90.0239 37.775 90.0239C34.7326 90.0239 32.2662 92.7016 32.2662 96.0047C32.2662 99.3079 34.7326 101.986 37.775 101.986Z" fill="url(#paint32_linear_1_1528)"/>
</mask>
<g mask="url(#mask16_1_1528)">
<path d="M37.775 101.986C40.8175 101.986 43.2839 99.3079 43.2839 96.0047C43.2839 92.7016 40.8175 90.0239 37.775 90.0239C34.7326 90.0239 32.2662 92.7016 32.2662 96.0047C32.2662 99.3079 34.7326 101.986 37.775 101.986Z" fill="url(#paint33_linear_1_1528)"/>
</g>
<mask id="mask17_1_1528" style="mask-type:alpha" maskUnits="userSpaceOnUse" x="64" y="90" width="12" height="12">
<path d="M69.6804 101.986C72.7229 101.986 75.1893 99.3079 75.1893 96.0047C75.1893 92.7016 72.7229 90.0239 69.6804 90.0239C66.638 90.0239 64.1716 92.7016 64.1716 96.0047C64.1716 99.3079 66.638 101.986 69.6804 101.986Z" fill="url(#paint34_linear_1_1528)"/>
</mask>
<g mask="url(#mask17_1_1528)">
<path d="M69.6804 101.986C72.7229 101.986 75.1893 99.3079 75.1893 96.0047C75.1893 92.7016 72.7229 90.0239 69.6804 90.0239C66.638 90.0239 64.1716 92.7016 64.1716 96.0047C64.1716 99.3079 66.638 101.986 69.6804 101.986Z" fill="url(#paint35_linear_1_1528)"/>
</g>
<mask id="mask18_1_1528" style="mask-type:alpha" maskUnits="userSpaceOnUse" x="96" y="90" width="12" height="12">
<path d="M101.586 101.986C104.628 101.986 107.095 99.3079 107.095 96.0047C107.095 92.7016 104.628 90.0239 101.586 90.0239C98.5433 90.0239 96.077 92.7016 96.077 96.0047C96.077 99.3079 98.5433 101.986 101.586 101.986Z" fill="url(#paint36_linear_1_1528)"/>
</mask>
<g mask="url(#mask18_1_1528)">
<path d="M101.586 101.986C104.628 101.986 107.095 99.3079 107.095 96.0047C107.095 92.7016 104.628 90.0239 101.586 90.0239C98.5433 90.0239 96.077 92.7016 96.077 96.0047C96.077 99.3079 98.5433 101.986 101.586 101.986Z" fill="url(#paint37_linear_1_1528)"/>
</g>
<mask id="mask19_1_1528" style="mask-type:alpha" maskUnits="userSpaceOnUse" x="127" y="90" width="12" height="12">
<path d="M133.491 101.986C136.534 101.986 139 99.3079 139 96.0047C139 92.7016 136.534 90.0239 133.491 90.0239C130.449 90.0239 127.982 92.7016 127.982 96.0047C127.982 99.3079 130.449 101.986 133.491 101.986Z" fill="url(#paint38_linear_1_1528)"/>
</mask>
<g mask="url(#mask19_1_1528)">
<path d="M133.491 101.986C136.534 101.986 139 99.3079 139 96.0047C139 92.7016 136.534 90.0239 133.491 90.0239C130.449 90.0239 127.982 92.7016 127.982 96.0047C127.982 99.3079 130.449 101.986 133.491 101.986Z" fill="url(#paint39_linear_1_1528)"/>
</g>
<mask id="mask20_1_1528" style="mask-type:alpha" maskUnits="userSpaceOnUse" x="0" y="119" width="12" height="13">
<path d="M5.86967 131.952C8.91212 131.952 11.3785 129.275 11.3785 125.972C11.3785 122.668 8.91212 119.991 5.86967 119.991C2.82722 119.991 0.36084 122.668 0.36084 125.972C0.36084 129.275 2.82722 131.952 5.86967 131.952Z" fill="url(#paint40_linear_1_1528)"/>
</mask>
<g mask="url(#mask20_1_1528)">
<path d="M5.86967 131.952C8.91212 131.952 11.3785 129.275 11.3785 125.972C11.3785 122.668 8.91212 119.991 5.86967 119.991C2.82722 119.991 0.36084 122.668 0.36084 125.972C0.36084 129.275 2.82722 131.952 5.86967 131.952Z" fill="url(#paint41_linear_1_1528)"/>
</g>
<mask id="mask21_1_1528" style="mask-type:alpha" maskUnits="userSpaceOnUse" x="32" y="119" width="12" height="13">
<path d="M37.775 131.952C40.8175 131.952 43.2839 129.275 43.2839 125.972C43.2839 122.668 40.8175 119.991 37.775 119.991C34.7326 119.991 32.2662 122.668 32.2662 125.972C32.2662 129.275 34.7326 131.952 37.775 131.952Z" fill="url(#paint42_linear_1_1528)"/>
</mask>
<g mask="url(#mask21_1_1528)">
<path d="M37.775 131.952C40.8175 131.952 43.2839 129.275 43.2839 125.972C43.2839 122.668 40.8175 119.991 37.775 119.991C34.7326 119.991 32.2662 122.668 32.2662 125.972C32.2662 129.275 34.7326 131.952 37.775 131.952Z" fill="url(#paint43_linear_1_1528)"/>
</g>
<mask id="mask22_1_1528" style="mask-type:alpha" maskUnits="userSpaceOnUse" x="64" y="119" width="12" height="13">
<path d="M69.6804 131.952C72.7229 131.952 75.1893 129.275 75.1893 125.972C75.1893 122.668 72.7229 119.991 69.6804 119.991C66.638 119.991 64.1716 122.668 64.1716 125.972C64.1716 129.275 66.638 131.952 69.6804 131.952Z" fill="url(#paint44_linear_1_1528)"/>
</mask>
<g mask="url(#mask22_1_1528)">
<path d="M69.6804 131.952C72.7229 131.952 75.1893 129.275 75.1893 125.972C75.1893 122.668 72.7229 119.991 69.6804 119.991C66.638 119.991 64.1716 122.668 64.1716 125.972C64.1716 129.275 66.638 131.952 69.6804 131.952Z" fill="url(#paint45_linear_1_1528)"/>
</g>
<mask id="mask23_1_1528" style="mask-type:alpha" maskUnits="userSpaceOnUse" x="96" y="119" width="12" height="13">
<path d="M101.586 131.952C104.628 131.952 107.095 129.275 107.095 125.972C107.095 122.668 104.628 119.991 101.586 119.991C98.5433 119.991 96.077 122.668 96.077 125.972C96.077 129.275 98.5433 131.952 101.586 131.952Z" fill="url(#paint46_linear_1_1528)"/>
</mask>
<g mask="url(#mask23_1_1528)">
<path d="M101.586 131.952C104.628 131.952 107.095 129.275 107.095 125.972C107.095 122.668 104.628 119.991 101.586 119.991C98.5433 119.991 96.077 122.668 96.077 125.972C96.077 129.275 98.5433 131.952 101.586 131.952Z" fill="url(#paint47_linear_1_1528)"/>
</g>
<mask id="mask24_1_1528" style="mask-type:alpha" maskUnits="userSpaceOnUse" x="127" y="119" width="12" height="13">
<path d="M133.491 131.952C136.534 131.952 139 129.275 139 125.972C139 122.668 136.534 119.991 133.491 119.991C130.449 119.991 127.982 122.668 127.982 125.972C127.982 129.275 130.449 131.952 133.491 131.952Z" fill="url(#paint48_linear_1_1528)"/>
</mask>
<g mask="url(#mask24_1_1528)">
<path d="M133.491 131.952C136.534 131.952 139 129.275 139 125.972C139 122.668 136.534 119.991 133.491 119.991C130.449 119.991 127.982 122.668 127.982 125.972C127.982 129.275 130.449 131.952 133.491 131.952Z" fill="url(#paint49_linear_1_1528)"/>
</g>
</g>
<defs>
<linearGradient id="paint0_linear_1_1528" x1="58.3069" y1="150.464" x2="-28.7486" y2="-53.0824" gradientUnits="userSpaceOnUse">
<stop stop-color="white"/>
<stop offset="1" stop-color="white"/>
</linearGradient>
<linearGradient id="paint1_linear_1_1528" x1="58.3069" y1="150.464" x2="-28.7486" y2="-53.0824" gradientUnits="userSpaceOnUse">
<stop stop-color="white"/>
<stop offset="1" stop-color="white"/>
</linearGradient>
<linearGradient id="paint2_linear_1_1528" x1="90.2123" y1="150.464" x2="3.15694" y2="-53.0824" gradientUnits="userSpaceOnUse">
<stop stop-color="white"/>
<stop offset="1" stop-color="white"/>
</linearGradient>
<linearGradient id="paint3_linear_1_1528" x1="90.2123" y1="150.464" x2="3.15694" y2="-53.0824" gradientUnits="userSpaceOnUse">
<stop stop-color="white"/>
<stop offset="1" stop-color="white"/>
</linearGradient>
<linearGradient id="paint4_linear_1_1528" x1="122.118" y1="150.464" x2="35.0623" y2="-53.0824" gradientUnits="userSpaceOnUse">
<stop stop-color="white"/>
<stop offset="1" stop-color="white"/>
</linearGradient>
<linearGradient id="paint5_linear_1_1528" x1="122.118" y1="150.464" x2="35.0623" y2="-53.0824" gradientUnits="userSpaceOnUse">
<stop stop-color="white"/>
<stop offset="1" stop-color="white"/>
</linearGradient>
<linearGradient id="paint6_linear_1_1528" x1="154.023" y1="150.464" x2="66.9677" y2="-53.0824" gradientUnits="userSpaceOnUse">
<stop stop-color="white"/>
<stop offset="1" stop-color="white"/>
</linearGradient>
<linearGradient id="paint7_linear_1_1528" x1="154.023" y1="150.464" x2="66.9677" y2="-53.0824" gradientUnits="userSpaceOnUse">
<stop stop-color="white"/>
<stop offset="1" stop-color="white"/>
</linearGradient>
<linearGradient id="paint8_linear_1_1528" x1="185.928" y1="150.464" x2="98.8731" y2="-53.0824" gradientUnits="userSpaceOnUse">
<stop stop-color="white"/>
<stop offset="1" stop-color="white"/>
</linearGradient>
<linearGradient id="paint9_linear_1_1528" x1="185.928" y1="150.464" x2="98.8731" y2="-53.0824" gradientUnits="userSpaceOnUse">
<stop stop-color="white"/>
<stop offset="1" stop-color="white"/>
</linearGradient>
<linearGradient id="paint10_linear_1_1528" x1="58.3069" y1="180.492" x2="-28.7471" y2="-23.0536" gradientUnits="userSpaceOnUse">
<stop stop-color="white"/>
<stop offset="1" stop-color="white"/>
</linearGradient>
<linearGradient id="paint11_linear_1_1528" x1="58.3069" y1="180.492" x2="-28.7471" y2="-23.0536" gradientUnits="userSpaceOnUse">
<stop stop-color="white"/>
<stop offset="1" stop-color="white"/>
</linearGradient>
<linearGradient id="paint12_linear_1_1528" x1="90.2123" y1="180.492" x2="3.15839" y2="-23.0537" gradientUnits="userSpaceOnUse">
<stop stop-color="white"/>
<stop offset="1" stop-color="white"/>
</linearGradient>
<linearGradient id="paint13_linear_1_1528" x1="90.2123" y1="180.492" x2="3.15839" y2="-23.0537" gradientUnits="userSpaceOnUse">
<stop stop-color="white"/>
<stop offset="1" stop-color="white"/>
</linearGradient>
<linearGradient id="paint14_linear_1_1528" x1="122.118" y1="180.492" x2="35.0638" y2="-23.0537" gradientUnits="userSpaceOnUse">
<stop stop-color="white"/>
<stop offset="1" stop-color="white"/>
</linearGradient>
<linearGradient id="paint15_linear_1_1528" x1="122.118" y1="180.492" x2="35.0638" y2="-23.0537" gradientUnits="userSpaceOnUse">
<stop stop-color="white"/>
<stop offset="1" stop-color="white"/>
</linearGradient>
<linearGradient id="paint16_linear_1_1528" x1="154.023" y1="180.492" x2="66.9691" y2="-23.0537" gradientUnits="userSpaceOnUse">
<stop stop-color="white"/>
<stop offset="1" stop-color="white"/>
</linearGradient>
<linearGradient id="paint17_linear_1_1528" x1="154.023" y1="180.492" x2="66.9691" y2="-23.0537" gradientUnits="userSpaceOnUse">
<stop stop-color="white"/>
<stop offset="1" stop-color="white"/>
</linearGradient>
<linearGradient id="paint18_linear_1_1528" x1="185.928" y1="180.492" x2="98.8745" y2="-23.0537" gradientUnits="userSpaceOnUse">
<stop stop-color="white"/>
<stop offset="1" stop-color="white"/>
</linearGradient>
<linearGradient id="paint19_linear_1_1528" x1="185.928" y1="180.492" x2="98.8745" y2="-23.0537" gradientUnits="userSpaceOnUse">
<stop stop-color="white"/>
<stop offset="1" stop-color="white"/>
</linearGradient>
<linearGradient id="paint20_linear_1_1528" x1="58.3069" y1="210.46" x2="-28.7486" y2="6.91301" gradientUnits="userSpaceOnUse">
<stop stop-color="white"/>
<stop offset="1" stop-color="white"/>
</linearGradient>
<linearGradient id="paint21_linear_1_1528" x1="58.3069" y1="210.46" x2="-28.7486" y2="6.91301" gradientUnits="userSpaceOnUse">
<stop stop-color="white"/>
<stop offset="1" stop-color="white"/>
</linearGradient>
<linearGradient id="paint22_linear_1_1528" x1="90.2123" y1="210.459" x2="3.15694" y2="6.91269" gradientUnits="userSpaceOnUse">
<stop stop-color="white"/>
<stop offset="1" stop-color="white"/>
</linearGradient>
<linearGradient id="paint23_linear_1_1528" x1="90.2123" y1="210.459" x2="3.15694" y2="6.91269" gradientUnits="userSpaceOnUse">
<stop stop-color="white"/>
<stop offset="1" stop-color="white"/>
</linearGradient>
<linearGradient id="paint24_linear_1_1528" x1="122.118" y1="210.459" x2="35.0623" y2="6.91269" gradientUnits="userSpaceOnUse">
<stop stop-color="white"/>
<stop offset="1" stop-color="white"/>
</linearGradient>
<linearGradient id="paint25_linear_1_1528" x1="122.118" y1="210.459" x2="35.0623" y2="6.91269" gradientUnits="userSpaceOnUse">
<stop stop-color="white"/>
<stop offset="1" stop-color="white"/>
</linearGradient>
<linearGradient id="paint26_linear_1_1528" x1="154.023" y1="210.459" x2="66.9677" y2="6.91269" gradientUnits="userSpaceOnUse">
<stop stop-color="white"/>
<stop offset="1" stop-color="white"/>
</linearGradient>
<linearGradient id="paint27_linear_1_1528" x1="154.023" y1="210.459" x2="66.9677" y2="6.91269" gradientUnits="userSpaceOnUse">
<stop stop-color="white"/>
<stop offset="1" stop-color="white"/>
</linearGradient>
<linearGradient id="paint28_linear_1_1528" x1="185.928" y1="210.459" x2="98.8731" y2="6.91269" gradientUnits="userSpaceOnUse">
<stop stop-color="white"/>
<stop offset="1" stop-color="white"/>
</linearGradient>
<linearGradient id="paint29_linear_1_1528" x1="185.928" y1="210.459" x2="98.8731" y2="6.91269" gradientUnits="userSpaceOnUse">
<stop stop-color="white"/>
<stop offset="1" stop-color="white"/>
</linearGradient>
<linearGradient id="paint30_linear_1_1528" x1="58.3069" y1="240.488" x2="-28.7486" y2="36.9418" gradientUnits="userSpaceOnUse">
<stop stop-color="white"/>
<stop offset="1" stop-color="white"/>
</linearGradient>
<linearGradient id="paint31_linear_1_1528" x1="58.3069" y1="240.488" x2="-28.7486" y2="36.9418" gradientUnits="userSpaceOnUse">
<stop stop-color="white"/>
<stop offset="1" stop-color="white"/>
</linearGradient>
<linearGradient id="paint32_linear_1_1528" x1="90.2123" y1="240.488" x2="3.15694" y2="36.9415" gradientUnits="userSpaceOnUse">
<stop stop-color="white"/>
<stop offset="1" stop-color="white"/>
</linearGradient>
<linearGradient id="paint33_linear_1_1528" x1="90.2123" y1="240.488" x2="3.15694" y2="36.9415" gradientUnits="userSpaceOnUse">
<stop stop-color="white"/>
<stop offset="1" stop-color="white"/>
</linearGradient>
<linearGradient id="paint34_linear_1_1528" x1="122.118" y1="240.488" x2="35.0623" y2="36.9415" gradientUnits="userSpaceOnUse">
<stop stop-color="white"/>
<stop offset="1" stop-color="white"/>
</linearGradient>
<linearGradient id="paint35_linear_1_1528" x1="122.118" y1="240.488" x2="35.0623" y2="36.9415" gradientUnits="userSpaceOnUse">
<stop stop-color="white"/>
<stop offset="1" stop-color="white"/>
</linearGradient>
<linearGradient id="paint36_linear_1_1528" x1="154.023" y1="240.488" x2="66.9677" y2="36.9415" gradientUnits="userSpaceOnUse">
<stop stop-color="white"/>
<stop offset="1" stop-color="white"/>
</linearGradient>
<linearGradient id="paint37_linear_1_1528" x1="154.023" y1="240.488" x2="66.9677" y2="36.9415" gradientUnits="userSpaceOnUse">
<stop stop-color="white"/>
<stop offset="1" stop-color="white"/>
</linearGradient>
<linearGradient id="paint38_linear_1_1528" x1="185.928" y1="240.488" x2="98.8731" y2="36.9415" gradientUnits="userSpaceOnUse">
<stop stop-color="white"/>
<stop offset="1" stop-color="white"/>
</linearGradient>
<linearGradient id="paint39_linear_1_1528" x1="185.928" y1="240.488" x2="98.8731" y2="36.9415" gradientUnits="userSpaceOnUse">
<stop stop-color="white"/>
<stop offset="1" stop-color="white"/>
</linearGradient>
<linearGradient id="paint40_linear_1_1528" x1="58.3069" y1="270.455" x2="-28.7486" y2="66.9084" gradientUnits="userSpaceOnUse">
<stop stop-color="white"/>
<stop offset="1" stop-color="white"/>
</linearGradient>
<linearGradient id="paint41_linear_1_1528" x1="58.3069" y1="270.455" x2="-28.7486" y2="66.9084" gradientUnits="userSpaceOnUse">
<stop stop-color="white"/>
<stop offset="1" stop-color="white"/>
</linearGradient>
<linearGradient id="paint42_linear_1_1528" x1="90.2123" y1="270.455" x2="3.15694" y2="66.9083" gradientUnits="userSpaceOnUse">
<stop stop-color="white"/>
<stop offset="1" stop-color="white"/>
</linearGradient>
<linearGradient id="paint43_linear_1_1528" x1="90.2123" y1="270.455" x2="3.15694" y2="66.9083" gradientUnits="userSpaceOnUse">
<stop stop-color="white"/>
<stop offset="1" stop-color="white"/>
</linearGradient>
<linearGradient id="paint44_linear_1_1528" x1="122.118" y1="270.455" x2="35.0623" y2="66.9083" gradientUnits="userSpaceOnUse">
<stop stop-color="white"/>
<stop offset="1" stop-color="white"/>
</linearGradient>
<linearGradient id="paint45_linear_1_1528" x1="122.118" y1="270.455" x2="35.0623" y2="66.9083" gradientUnits="userSpaceOnUse">
<stop stop-color="white"/>
<stop offset="1" stop-color="white"/>
</linearGradient>
<linearGradient id="paint46_linear_1_1528" x1="154.023" y1="270.455" x2="66.9677" y2="66.9083" gradientUnits="userSpaceOnUse">
<stop stop-color="white"/>
<stop offset="1" stop-color="white"/>
</linearGradient>
<linearGradient id="paint47_linear_1_1528" x1="154.023" y1="270.455" x2="66.9677" y2="66.9083" gradientUnits="userSpaceOnUse">
<stop stop-color="white"/>
<stop offset="1" stop-color="white"/>
</linearGradient>
<linearGradient id="paint48_linear_1_1528" x1="185.928" y1="270.455" x2="98.8731" y2="66.9083" gradientUnits="userSpaceOnUse">
<stop stop-color="white"/>
<stop offset="1" stop-color="white"/>
</linearGradient>
<linearGradient id="paint49_linear_1_1528" x1="185.928" y1="270.455" x2="98.8731" y2="66.9083" gradientUnits="userSpaceOnUse">
<stop stop-color="white"/>
<stop offset="1" stop-color="white"/>
</linearGradient>
</defs>
</svg>
