<svg width="74" height="96" viewBox="0 0 74 96" fill="none" xmlns="http://www.w3.org/2000/svg">
<path d="M74 4.31029V90.7055C74 93.0896 71.9468 95.0158 69.4055 95.0158H4.5945C2.05322 95 0 93.0738 0 90.7055V4.31029C0 1.92621 2.05322 0 4.5945 0H69.4223C71.9468 0 74 1.92621 74 4.31029Z" fill="url(#paint0_linear_1_240)"/>
<path d="M69.2859 7.94666V87.0533C69.2859 89.2363 67.4818 91 65.2488 91H8.30082C6.06785 90.9855 4.26373 89.2218 4.26373 87.0533V7.94666C4.26373 5.76371 6.06785 4 8.30082 4H65.2636C67.4818 4 69.2859 5.76371 69.2859 7.94666Z" fill="url(#paint1_linear_1_240)"/>
<path d="M28.6441 18.2516V22.183C28.6441 22.4672 28.4085 22.6882 28.1055 22.6882H22.9725C22.6695 22.6882 22.4339 22.9093 22.4339 23.1935V28.009C22.4339 28.2932 22.1983 28.5142 21.8954 28.5142H17.7048C17.4019 28.5142 17.1662 28.2932 17.1662 28.009V23.1935C17.1662 22.9093 16.9306 22.6882 16.6277 22.6882H11.5115C11.2085 22.6882 10.9729 22.4672 10.9729 22.183V18.2516C10.9729 17.9674 11.2085 17.7464 11.5115 17.7464H16.6445C16.9475 17.7464 17.1831 17.5254 17.1831 17.2412V12.4256C17.1831 12.1415 17.4187 11.9204 17.7216 11.9204H21.9122C22.2151 11.9204 22.4508 12.1415 22.4508 12.4256V17.2412C22.4508 17.5254 22.6864 17.7464 22.9893 17.7464H28.1055C28.4085 17.7464 28.6441 17.9674 28.6441 18.2516Z" fill="url(#paint2_linear_1_240)"/>
<path opacity="0.5" d="M62.438 39.6768H11.562C11.2254 39.6768 10.9561 39.4242 10.9561 39.1084V37.2927C10.9561 36.9769 11.2254 36.7243 11.562 36.7243H62.438C62.7746 36.7243 63.0439 36.9769 63.0439 37.2927V39.1084C63.0271 39.4242 62.7746 39.6768 62.438 39.6768Z" fill="url(#paint3_linear_1_240)"/>
<path d="M62.438 17.0517H37.1935C36.8569 17.0517 36.5876 16.7991 36.5876 16.4833V14.6834C36.5876 14.3676 36.8569 14.115 37.1935 14.115H62.438C62.7746 14.115 63.0439 14.3676 63.0439 14.6834V16.4991C63.027 16.7991 62.7746 17.0517 62.438 17.0517Z" fill="url(#paint4_linear_1_240)"/>
<path opacity="0.5" d="M54.9656 24.7249H37.1935C36.8569 24.7249 36.5876 24.4723 36.5876 24.1565V22.3408C36.5876 22.0251 36.8569 21.7725 37.1935 21.7725H54.9656C55.3022 21.7725 55.5715 22.0251 55.5715 22.3408V24.1565C55.5547 24.4723 55.3022 24.7249 54.9656 24.7249Z" fill="url(#paint5_linear_1_240)"/>
<path opacity="0.5" d="M62.438 48.2973H11.562C11.2254 48.2973 10.9561 48.0447 10.9561 47.729V45.9133C10.9561 45.5975 11.2254 45.3449 11.562 45.3449H62.438C62.7746 45.3449 63.0439 45.5975 63.0439 45.9133V47.729C63.0271 48.0447 62.7746 48.2973 62.438 48.2973Z" fill="url(#paint6_linear_1_240)"/>
<path opacity="0.5" d="M62.438 56.9179H11.562C11.2254 56.9179 10.9561 56.6653 10.9561 56.3495V54.5338C10.9561 54.2181 11.2254 53.9655 11.562 53.9655H62.438C62.7746 53.9655 63.0439 54.2181 63.0439 54.5338V56.3653C63.0271 56.6653 62.7746 56.9179 62.438 56.9179Z" fill="url(#paint7_linear_1_240)"/>
<path opacity="0.5" d="M62.438 65.5543H11.562C11.2254 65.5543 10.9561 65.3017 10.9561 64.9859V63.1702C10.9561 62.8544 11.2254 62.6018 11.562 62.6018H62.438C62.7746 62.6018 63.0439 62.8544 63.0439 63.1702V64.9859C63.0271 65.3017 62.7746 65.5543 62.438 65.5543Z" fill="url(#paint8_linear_1_240)"/>
<path opacity="0.5" d="M62.438 74.1749H11.562C11.2254 74.1749 10.9561 73.9223 10.9561 73.6065V71.7908C10.9561 71.475 11.2254 71.2224 11.562 71.2224H62.438C62.7746 71.2224 63.0439 71.475 63.0439 71.7908V73.6065C63.0271 73.9223 62.7746 74.1749 62.438 74.1749Z" fill="url(#paint9_linear_1_240)"/>
<path opacity="0.5" d="M62.438 82.7954H11.562C11.2254 82.7954 10.9561 82.5428 10.9561 82.227V80.4113C10.9561 80.0956 11.2254 79.843 11.562 79.843H62.438C62.7746 79.843 63.0439 80.0956 63.0439 80.4113V82.227C63.0271 82.5428 62.7746 82.7954 62.438 82.7954Z" fill="url(#paint10_linear_1_240)"/>
<path opacity="0.1" d="M74 4.31029V90.7055C74 93.0896 71.9468 95.0158 69.4055 95.0158H4.5945C2.05322 95 0 93.0738 0 90.7055V89.2056C39.5329 73.8906 57.9445 15.1571 62.1014 0H69.4055C71.9468 0 74 1.92621 74 4.31029Z" fill="#1A6FB5" fill-opacity="0.4"/>
<defs>
<linearGradient id="paint0_linear_1_240" x1="101.264" y1="126" x2="2.10058" y2="-11.6219" gradientUnits="userSpaceOnUse">
<stop offset="0.3061" stop-color="#6888C8"/>
<stop offset="1" stop-color="#69B8FC"/>
</linearGradient>
<linearGradient id="paint1_linear_1_240" x1="9.19273" y1="7.04564" x2="57.3354" y2="80.9141" gradientUnits="userSpaceOnUse">
<stop offset="0.3061" stop-color="white"/>
<stop offset="1" stop-color="white"/>
</linearGradient>
<linearGradient id="paint2_linear_1_240" x1="10.6594" y1="9.50003" x2="25.207" y2="34.8279" gradientUnits="userSpaceOnUse">
<stop stop-color="#B0F4FF"/>
<stop offset="0.368525" stop-color="#80E4FD"/>
<stop offset="1" stop-color="#6CDDFC"/>
</linearGradient>
<linearGradient id="paint3_linear_1_240" x1="10.9691" y1="38.2072" x2="63.0348" y2="38.2072" gradientUnits="userSpaceOnUse">
<stop stop-color="#6CBCFC"/>
<stop offset="1" stop-color="#458DFC"/>
</linearGradient>
<linearGradient id="paint4_linear_1_240" x1="36.5881" y1="15.5844" x2="63.0347" y2="15.5844" gradientUnits="userSpaceOnUse">
<stop stop-color="#6CBCFC"/>
<stop offset="1" stop-color="#458DFC"/>
</linearGradient>
<linearGradient id="paint5_linear_1_240" x1="36.5881" y1="23.2616" x2="55.5626" y2="23.2616" gradientUnits="userSpaceOnUse">
<stop stop-color="#6CBCFC"/>
<stop offset="1" stop-color="#458DFC"/>
</linearGradient>
<linearGradient id="paint6_linear_1_240" x1="10.9691" y1="46.8317" x2="63.0348" y2="46.8317" gradientUnits="userSpaceOnUse">
<stop stop-color="#6CBCFC"/>
<stop offset="1" stop-color="#458DFC"/>
</linearGradient>
<linearGradient id="paint7_linear_1_240" x1="10.9691" y1="55.4562" x2="63.0348" y2="55.4562" gradientUnits="userSpaceOnUse">
<stop stop-color="#6CBCFC"/>
<stop offset="1" stop-color="#458DFC"/>
</linearGradient>
<linearGradient id="paint8_linear_1_240" x1="10.9691" y1="64.0807" x2="63.0348" y2="64.0807" gradientUnits="userSpaceOnUse">
<stop stop-color="#6CBCFC"/>
<stop offset="1" stop-color="#458DFC"/>
</linearGradient>
<linearGradient id="paint9_linear_1_240" x1="10.9691" y1="72.7052" x2="63.0348" y2="72.7052" gradientUnits="userSpaceOnUse">
<stop stop-color="#6CBCFC"/>
<stop offset="1" stop-color="#458DFC"/>
</linearGradient>
<linearGradient id="paint10_linear_1_240" x1="10.9691" y1="81.3296" x2="63.0348" y2="81.3296" gradientUnits="userSpaceOnUse">
<stop stop-color="#6CBCFC"/>
<stop offset="1" stop-color="#458DFC"/>
</linearGradient>
</defs>
</svg>
