<svg width="30" height="28" viewBox="0 0 30 28" fill="none" xmlns="http://www.w3.org/2000/svg">
<path d="M28.2435 0.00146484V7.50951H11.5221C11.3202 7.50782 11.1199 7.53614 10.9327 7.59294C10.7455 7.64969 10.5751 7.73375 10.4314 7.84023C10.3144 7.92719 10.219 8.02904 10.1495 8.1411C10.305 6.23921 11.2644 4.42424 12.8881 2.96027C14.5117 1.49631 16.7149 0.45976 19.1769 0.00146484H28.2435Z" fill="url(#paint0_linear_1_1817)"/>
<path d="M19.4823 18.9373C19.3444 20.8487 18.395 22.6767 16.7733 24.1533C15.1517 25.6299 12.9431 26.6775 10.4712 27.1425H1.8208V19.636H18.0622C18.2688 19.6381 18.474 19.6086 18.6651 19.5496C18.8479 19.4936 19.0138 19.4105 19.1529 19.3053C19.2928 19.1994 19.4046 19.0745 19.4823 18.9373Z" fill="url(#paint1_linear_1_1817)"/>
<path d="M29.5883 18.4859C29.5955 19.6439 29.2877 20.7907 28.6837 21.856C28.5609 22.0705 28.426 22.2818 28.2796 22.4876C28.2754 22.4962 28.2712 22.4994 28.2712 22.5053C28.2698 22.5097 28.2671 22.5139 28.2634 22.5175C27.021 24.2817 25.0087 25.6713 22.5641 26.4531C21.1427 26.9135 19.6099 27.1478 18.0621 27.1413H10.4748L10.5621 27.1236C13.0134 26.647 15.1992 25.5966 16.8029 24.1246C18.4066 22.6527 19.345 20.8354 19.4823 18.9361V18.9329C19.6273 18.6495 19.6301 18.336 19.4901 18.0511C19.4864 18.0452 19.4823 18.0362 19.4781 18.0303C19.4026 17.8933 19.2921 17.7688 19.1529 17.6638C19.0102 17.5565 18.8399 17.472 18.6524 17.4157C18.4649 17.3593 18.264 17.3321 18.0621 17.3359H11.5221C11.1969 17.3359 10.8716 17.3272 10.5501 17.3033C10.5386 17.3033 10.5265 17.3001 10.5109 17.3001C9.3095 17.2287 8.13242 17.0073 7.02801 16.645C4.27998 15.7563 2.09182 14.1082 0.916174 12.0415C0.761362 11.7753 0.626263 11.5028 0.511478 11.2253C0.168309 10.3946 -0.00412906 9.52946 0.000111771 8.65969C-0.00677954 7.49913 0.305066 6.35001 0.916174 5.28411C2.09864 3.22376 4.28528 1.58115 7.02801 0.692875C7.82852 0.429585 8.6692 0.241463 9.53099 0.132767C9.56289 0.126482 9.58642 0.123731 9.6021 0.120588C9.61 0.119082 9.61805 0.118159 9.62615 0.117838C10.2527 0.0391337 10.8868 -0.000281677 11.5221 1.51515e-06H19.1769C16.7148 0.458298 14.5116 1.49485 12.888 2.95881C11.2644 4.42278 10.305 6.23775 10.1495 8.13964C10.1328 8.16172 10.1183 8.18469 10.1061 8.20838C10.0278 8.35092 9.98871 8.50391 9.99112 8.65812C9.98887 8.81959 10.0292 8.97976 10.1098 9.12945C10.1182 9.14611 10.1289 9.16202 10.1417 9.17698C10.21 9.29631 10.3084 9.4046 10.4314 9.49592C10.5745 9.60299 10.7448 9.6874 10.9322 9.7442C11.1195 9.80103 11.3201 9.82904 11.5221 9.82664H18.0621C19.6066 9.82048 21.1366 10.0506 22.5588 10.503C25.3241 11.3763 27.5239 13.0287 28.6864 15.106C28.84 15.3753 28.9738 15.6506 29.0874 15.9309C29.4233 16.759 29.5921 17.6202 29.5883 18.4859Z" fill="url(#paint2_linear_1_1817)"/>
<g style="mix-blend-mode:multiply" opacity="0.16">
<g style="mix-blend-mode:multiply" opacity="0.16">
<path d="M19.4822 18.9373C19.3442 20.8487 18.3948 22.6767 16.7732 24.1533C15.1516 25.6299 12.9429 26.6775 10.4711 27.1425H8.05957C10.0832 26.4271 11.8696 25.3825 13.2894 24.0844C14.7093 22.7863 15.7269 21.2672 16.2686 19.6372H18.061C18.2677 19.6392 18.4727 19.6098 18.6639 19.5508C18.8467 19.4948 19.0126 19.4117 19.1518 19.3065C19.2922 19.2003 19.4043 19.075 19.4822 18.9373Z" fill="black"/>
</g>
</g>
<g style="mix-blend-mode:multiply" opacity="0.16">
<g style="mix-blend-mode:multiply" opacity="0.16">
<path d="M21.3505 0.00146484C19.1173 1.24973 14.5841 4.13079 13.4416 7.50951H11.5221C11.3202 7.50782 11.1199 7.53614 10.9327 7.59294C10.7455 7.64969 10.5751 7.73375 10.4314 7.84023C10.3144 7.92719 10.219 8.02904 10.1495 8.1411C10.305 6.23921 11.2644 4.42424 12.8881 2.96027C14.5117 1.49631 16.7149 0.45976 19.1769 0.00146484H21.3505Z" fill="black"/>
</g>
</g>
<g style="mix-blend-mode:multiply" opacity="0.25">
<g style="mix-blend-mode:multiply" opacity="0.25">
<path d="M28.2436 2.2478V7.5111H14.2788C15.4406 7.42468 16.6066 7.36537 17.769 7.32335C18.9313 7.28132 20.0973 7.24479 21.2591 7.23104C22.4251 7.20433 23.5875 7.20748 24.7535 7.19844C25.7992 7.20748 26.8355 7.20748 27.8792 7.22515C27.8907 6.88264 27.8991 6.53974 27.9184 6.19449C27.9383 5.75614 27.9582 5.31819 27.9942 4.88024C28.0517 4.00276 28.1286 3.12371 28.2436 2.2478Z" fill="black"/>
</g>
</g>
<g style="mix-blend-mode:screen" opacity="0.7">
<g style="mix-blend-mode:screen" opacity="0.7">
<path d="M29.5882 18.4861C29.5954 19.644 29.2876 20.7908 28.6836 21.8562C28.5608 22.0707 28.4259 22.282 28.2795 22.4878C28.3192 22.4073 28.4499 22.1507 28.6455 21.7576C28.9484 21.089 29.1467 20.3962 29.2363 19.6931C29.2928 19.2275 29.3049 18.7594 29.2724 18.2924C29.2326 17.7761 29.1371 17.263 28.9869 16.7583C28.9091 16.4972 28.8124 16.2396 28.6972 15.9864C28.5623 15.7245 28.4274 15.4589 28.2925 15.1938C27.9899 14.6724 27.6177 14.1754 27.182 13.7103C26.7574 13.2389 26.2666 12.8033 25.7179 12.4109C25.1894 12.0301 24.6159 11.6862 24.0045 11.3834C23.4245 11.1005 22.8158 10.8524 22.1838 10.6415C21.6146 10.4574 21.0273 10.307 20.427 10.1913C19.5133 10.0211 18.5791 9.92031 17.6385 9.89046C16.9483 9.85118 16.5557 9.828 16.5557 9.828H18.0589C19.6034 9.8218 21.1333 10.0519 22.5556 10.5044C25.3209 11.3776 27.5206 13.0301 28.6831 15.1074C28.8367 15.3766 28.9706 15.652 29.0842 15.9322C29.4209 16.7598 29.5908 17.6207 29.5882 18.4861Z" fill="white"/>
</g>
</g>
<g style="mix-blend-mode:multiply" opacity="0.25">
<g style="mix-blend-mode:multiply" opacity="0.25">
<path d="M9.2215 27.1413H1.8208V21.4656C1.91178 21.9393 1.96719 22.4083 2.0268 22.8839C2.07438 23.3576 2.1183 23.8313 2.14602 24.3019C2.18575 24.7756 2.19361 25.2496 2.21714 25.7233L2.23335 26.8314C2.71282 26.8373 3.19281 26.8373 3.6728 26.8463C4.2877 26.8644 4.9026 26.8703 5.52115 26.9001C6.7546 26.9449 7.98805 27.0132 9.2215 27.1413Z" fill="black"/>
</g>
</g>
<g style="mix-blend-mode:screen" opacity="0.7">
<g style="mix-blend-mode:screen" opacity="0.7">
<path d="M10.5109 17.3002C9.3095 17.2287 8.13242 17.0073 7.02801 16.645C4.27998 15.7564 2.09182 14.1083 0.916174 12.0416C0.761362 11.7753 0.626263 11.5029 0.511478 11.2254C0.168309 10.3947 -0.00412906 9.52952 0.000111771 8.65974C-0.00677954 7.49919 0.305066 6.35006 0.916174 5.28417C2.09864 3.22381 4.28528 1.58119 7.02801 0.692919C7.82852 0.429629 8.6692 0.241508 9.53099 0.132812C9.09868 0.210908 8.67228 0.306358 8.25362 0.418757C5.41344 1.18078 3.06357 2.72352 1.678 4.73584C0.761702 6.05724 0.330379 7.53811 0.428343 9.02621C0.45907 9.77395 0.631419 10.5146 0.940221 11.2258C1.0312 11.4073 1.11853 11.5891 1.20585 11.7678L1.26912 11.9018L1.28532 11.9348C1.28897 11.9403 1.29162 11.9463 1.29317 11.9524L1.3329 12.018L1.48348 12.2714C1.68378 12.5993 1.91296 12.9169 2.16949 13.2219C2.65583 13.8027 3.22953 14.3395 3.87928 14.8217C4.46902 15.2533 5.11466 15.6396 5.80658 15.9749C6.39727 16.2565 7.01672 16.5025 7.65911 16.7106C8.16039 16.8707 8.67751 17.0013 9.20577 17.101C9.63604 17.1839 10.0716 17.2503 10.5109 17.3002Z" fill="white"/>
</g>
</g>
<g style="mix-blend-mode:screen" opacity="0.7">
<g style="mix-blend-mode:screen" opacity="0.7">
<path d="M19.1768 0.00146484C16.7148 0.45976 14.5116 1.49631 12.888 2.96027C11.2643 4.42424 10.305 6.23921 10.1495 8.1411C10.1327 8.16318 10.1182 8.18616 10.1061 8.20984L10.138 8.13521C10.1259 7.89954 10.1259 7.66152 10.1259 7.4231C10.1495 7.18507 10.185 6.94665 10.2169 6.70509C10.2692 6.46942 10.3398 6.23375 10.3994 5.99808C10.4789 5.76241 10.5861 5.53617 10.6771 5.30089C10.7816 5.07151 10.9113 4.85076 11.0378 4.62452C11.1727 4.40417 11.3317 4.19246 11.4744 3.97486C11.6407 3.76354 11.8232 3.564 11.9973 3.35543C12.1876 3.15904 12.3858 2.96501 12.5845 2.77411C12.7983 2.58951 13.0247 2.41393 13.2428 2.23482C13.4807 2.06828 13.7134 1.90135 13.9607 1.74031L14.734 1.29647C15.0038 1.16253 15.2773 1.03723 15.5549 0.909182C15.8446 0.801952 16.1264 0.685693 16.4156 0.581212L17.3123 0.319222C17.626 0.250485 17.9308 0.182141 18.2404 0.122831C18.5499 0.0756969 18.8636 0.0372081 19.1768 0.00146484Z" fill="white"/>
</g>
</g>
<g style="mix-blend-mode:screen" opacity="0.7">
<g style="mix-blend-mode:screen" opacity="0.7">
<path d="M19.554 18.933C19.5577 19.1773 19.5577 19.4157 19.5499 19.6569C19.53 19.8984 19.4903 20.1369 19.4547 20.378C19.3993 20.6163 19.3359 20.8547 19.2644 21.0933C19.1849 21.329 19.0819 21.5611 18.9904 21.7932C18.8858 22.0257 18.7488 22.2461 18.6244 22.4727C18.49 22.6962 18.3352 22.9107 18.1841 23.1283C18.0215 23.3396 17.8396 23.5423 17.6649 23.7508C17.4746 23.9504 17.2759 24.1436 17.0777 24.3377C16.8639 24.5227 16.6375 24.7014 16.4194 24.8828C16.1815 25.0529 15.9489 25.2199 15.7015 25.3836L14.9277 25.8306C14.6579 25.9647 14.3843 26.0956 14.1068 26.2234L13.2461 26.56L12.3458 26.8311L11.4213 27.0337C11.1834 27.0695 10.9507 27.1052 10.7154 27.1351L10.7677 27.141L10.4937 27.1649C10.4901 27.1681 10.4817 27.1681 10.4781 27.1681L10.4739 27.141L10.4702 27.1142L10.5612 27.1233C13.0125 26.6466 15.1983 25.5963 16.802 24.1243C18.4057 22.6523 19.3441 20.8351 19.4814 18.9357V18.9326C19.5583 18.7908 19.5961 18.6387 19.5922 18.4856C19.621 18.6351 19.608 18.7874 19.554 18.933Z" fill="white"/>
</g>
</g>
<defs>
<linearGradient id="paint0_linear_1_1817" x1="28.2435" y1="4.07128" x2="10.8914" y2="4.07128" gradientUnits="userSpaceOnUse">
<stop stop-color="#6888C8"/>
</linearGradient>
<linearGradient id="paint1_linear_1_1817" x1="1.132" y1="23.0399" x2="17.8045" y2="23.0399" gradientUnits="userSpaceOnUse">
<stop stop-color="#6888C8"/>
<stop offset="0.940625" stop-color="#69DCFC"/>
</linearGradient>
<linearGradient id="paint2_linear_1_1817" x1="14.7942" y1="-0.217131" x2="14.7942" y2="27.8742" gradientUnits="userSpaceOnUse">
<stop stop-color="#345392"/>
<stop offset="0.83125" stop-color="#6DDDFC"/>
</linearGradient>
</defs>
</svg>
